<?xml version="1.0" encoding="UTF-8" standalone="no"?>
<!DOCTYPE svg PUBLIC "-//W3C//DTD SVG 1.1//EN" "http://www.w3.org/Graphics/SVG/1.1/DTD/svg11.dtd">
<svg version="1.1" xmlns="http://www.w3.org/2000/svg" xmlns:xlink="http://www.w3.org/1999/xlink" preserveAspectRatio="xMidYMid meet" viewBox="0 0 640 640" width="640" height="640"><defs><path d="M161.98 297.27C149.42 297.27 139.23 307.44 139.23 320.02C139.23 332.6 149.4 342.77 161.98 342.77C162.1 342.77 162.2 342.77 162.32 342.77C194.16 342.77 448.92 342.77 480.76 342.77C480.86 342.77 480.96 342.77 481.08 342.77C493.64 342.77 503.83 332.6 503.83 320.02C503.83 307.44 493.66 297.27 481.08 297.27C480.96 297.27 480.86 297.27 480.74 297.27C417.05 297.27 225.99 297.27 162.3 297.27C162.2 297.27 162.1 297.27 161.98 297.27Z" id="d2ThLAIXJ1"></path><path d="M161.98 297.27C149.42 297.27 139.23 307.44 139.23 320.02C139.23 332.6 149.4 342.77 161.98 342.77C162.1 342.77 162.2 342.77 162.32 342.77C194.16 342.77 448.92 342.77 480.76 342.77C480.86 342.77 480.96 342.77 481.08 342.77C493.64 342.77 503.83 332.6 503.83 320.02C503.83 307.44 493.66 297.27 481.08 297.27C480.96 297.27 480.86 297.27 480.74 297.27C417.05 297.27 225.99 297.27 162.3 297.27C162.2 297.27 162.1 297.27 161.98 297.27Z" id="b39VGlAgGk"></path><path d="M344.29 160.46C344.29 147.9 334.12 137.71 321.54 137.71C308.96 137.71 298.79 147.88 298.79 160.46C298.79 160.58 298.79 160.68 298.79 160.8C298.79 160.8 298.79 160.79 298.79 160.78C298.79 351.86 298.79 458.01 298.79 479.24C298.79 479.34 298.79 479.44 298.79 479.56C298.79 492.12 308.96 502.31 321.54 502.31C334.12 502.31 344.29 492.14 344.29 479.56C344.29 479.44 344.29 479.34 344.29 479.22C344.29 479.22 344.29 479.23 344.29 479.24C344.29 309.39 344.29 203.24 344.29 160.78C344.29 160.68 344.29 160.58 344.29 160.46Z" id="eNvp2KqN0"></path><path d="M344.29 160.46C344.29 147.9 334.12 137.71 321.54 137.71C308.96 137.71 298.79 147.88 298.79 160.46C298.79 160.58 298.79 160.68 298.79 160.8C298.79 160.8 298.79 160.79 298.79 160.78C298.79 351.86 298.79 458.01 298.79 479.24C298.79 479.34 298.79 479.44 298.79 479.56C298.79 492.12 308.96 502.31 321.54 502.31C334.12 502.31 344.29 492.14 344.29 479.56C344.29 479.44 344.29 479.34 344.29 479.22C344.29 479.22 344.29 479.23 344.29 479.24C344.29 309.39 344.29 203.24 344.29 160.78C344.29 160.68 344.29 160.58 344.29 160.46Z" id="bkH9kagP0"></path><path d="M347.62 2.6L360.45 3.9L373.13 5.72L385.64 8.02L397.98 10.81L410.13 14.08L422.09 17.8L433.84 21.98L445.38 26.61L456.69 31.66L467.77 37.14L478.6 43.03L489.17 49.32L499.47 56L509.5 63.06L519.24 70.5L528.68 78.29L537.81 86.44L546.62 94.92L555.1 103.73L563.25 112.86L571.04 122.3L578.48 132.04L585.54 142.07L592.22 152.37L598.51 162.94L604.4 173.77L609.88 184.85L614.93 196.16L619.56 207.7L623.74 219.45L627.47 231.41L630.73 243.56L633.52 255.9L635.82 268.41L637.64 281.09L638.94 293.92L639.73 306.89L640 320L639.73 333.11L638.94 346.08L637.64 358.91L635.82 371.59L633.52 384.1L630.73 396.44L627.47 408.59L623.74 420.55L619.56 432.3L614.94 443.84L609.88 455.15L604.41 466.23L598.52 477.06L592.23 487.63L585.54 497.93L578.48 507.96L571.05 517.7L563.25 527.14L555.11 536.27L546.63 545.08L537.82 553.56L528.68 561.71L519.24 569.5L509.51 576.94L499.48 584L489.18 590.68L478.61 596.97L467.78 602.86L456.7 608.34L445.39 613.39L433.85 618.02L422.1 622.2L410.14 625.92L397.99 629.19L385.65 631.98L373.13 634.28L360.46 636.1L347.62 637.4L334.65 638.19L321.54 638.46L308.43 638.19L295.46 637.4L282.63 636.1L269.95 634.28L257.44 631.98L245.1 629.19L232.95 625.92L220.99 622.2L209.24 618.02L197.7 613.39L186.39 608.34L175.31 602.86L164.48 596.97L153.91 590.68L143.61 584L133.58 576.94L123.84 569.5L114.4 561.71L105.27 553.56L96.46 545.08L87.98 536.27L79.83 527.14L72.04 517.7L64.61 507.96L57.54 497.93L50.86 487.63L44.57 477.06L38.68 466.23L33.2 455.15L28.15 443.84L23.52 432.3L19.34 420.55L15.62 408.59L12.35 396.44L9.56 384.1L7.26 371.59L5.44 358.91L4.14 346.08L3.35 333.11L3.08 320L3.35 306.89L4.14 293.92L5.44 281.09L7.26 268.41L9.56 255.9L12.35 243.56L15.61 231.41L19.34 219.45L23.52 207.7L28.14 196.16L33.2 184.85L38.68 173.77L44.56 162.94L50.85 152.37L57.54 142.07L64.6 132.04L72.03 122.3L79.83 112.86L87.97 103.73L96.45 94.92L105.26 86.44L114.4 78.29L123.84 70.5L133.57 63.06L143.6 56L153.9 49.32L164.48 43.03L175.3 37.14L186.38 31.66L197.69 26.61L209.23 21.98L220.98 17.8L232.94 14.08L245.09 10.81L257.43 8.02L269.95 5.72L282.63 3.9L295.46 2.6L308.43 1.81L321.54 1.54L334.65 1.81L347.62 2.6ZM299.11 47.95L288.09 49.06L277.19 50.61L266.45 52.58L255.85 54.96L245.42 57.75L235.15 60.93L225.07 64.5L215.17 68.46L205.47 72.78L195.97 77.46L186.69 82.5L177.62 87.87L168.79 93.59L160.2 99.63L151.86 105.99L143.78 112.66L135.96 119.63L128.41 126.89L121.15 134.44L114.18 142.26L107.51 150.34L101.15 158.68L95.11 167.27L89.4 176.1L84.02 185.17L78.98 194.45L74.3 203.95L69.98 213.65L66.03 223.55L62.45 233.63L59.27 243.9L56.48 254.33L54.1 264.93L52.13 275.67L50.58 286.57L49.47 297.59L48.79 308.75L48.56 320.02L48.79 331.29L49.47 342.45L50.58 353.47L52.13 364.37L54.1 375.11L56.48 385.71L59.27 396.14L62.45 406.41L66.03 416.49L69.98 426.39L74.3 436.09L78.98 445.59L84.02 454.87L89.4 463.94L95.11 472.77L101.15 481.36L107.51 489.7L114.18 497.78L121.15 505.6L128.41 513.15L135.96 520.41L143.78 527.38L151.86 534.05L160.2 540.41L168.79 546.45L177.62 552.16L186.69 557.54L195.97 562.58L205.47 567.26L215.17 571.58L225.07 575.53L235.15 579.11L245.42 582.29L255.85 585.08L266.45 587.46L277.19 589.43L288.09 590.98L299.11 592.09L310.27 592.77L321.54 593L332.81 592.77L343.97 592.09L354.99 590.98L365.89 589.43L376.63 587.46L387.23 585.08L397.66 582.29L407.93 579.11L418.01 575.53L427.91 571.58L437.61 567.26L447.11 562.58L456.39 557.54L465.46 552.16L474.29 546.44L482.88 540.4L491.22 534.04L499.3 527.37L507.12 520.4L514.67 513.14L521.93 505.6L528.9 497.78L535.57 489.69L541.93 481.35L547.97 472.76L553.69 463.93L559.06 454.87L564.1 445.58L568.78 436.09L573.1 426.38L577.06 416.49L580.63 406.4L583.81 396.14L586.6 385.7L588.98 375.11L590.95 364.36L592.5 353.47L593.61 342.44L594.29 331.29L594.52 320.02L594.29 308.75L593.61 297.6L592.5 286.57L590.95 275.68L588.98 264.93L586.6 254.34L583.81 243.9L580.63 233.64L577.06 223.55L573.1 213.66L568.78 203.95L564.1 194.46L559.06 185.17L553.69 176.11L547.97 167.28L541.93 158.69L535.57 150.35L528.9 142.26L521.93 134.44L514.67 126.9L507.12 119.64L499.3 112.67L491.22 106L482.88 99.64L474.29 93.6L465.46 87.88L456.39 82.5L447.11 77.46L437.61 72.78L427.91 68.46L418.01 64.51L407.93 60.93L397.66 57.75L387.23 54.96L376.63 52.58L365.89 50.61L354.99 49.06L343.97 47.95L332.81 47.27L321.54 47.04L310.27 47.27L299.11 47.95Z" id="aqqwX670W"></path><path d="M347.62 2.6L360.45 3.9L373.13 5.72L385.64 8.02L397.98 10.81L410.13 14.08L422.09 17.8L433.84 21.98L445.38 26.61L456.69 31.66L467.77 37.14L478.6 43.03L489.17 49.32L499.47 56L509.5 63.06L519.24 70.5L528.68 78.29L537.81 86.44L546.62 94.92L555.1 103.73L563.25 112.86L571.04 122.3L578.48 132.04L585.54 142.07L592.22 152.37L598.51 162.94L604.4 173.77L609.88 184.85L614.93 196.16L619.56 207.7L623.74 219.45L627.47 231.41L630.73 243.56L633.52 255.9L635.82 268.41L637.64 281.09L638.94 293.92L639.73 306.89L640 320L639.73 333.11L638.94 346.08L637.64 358.91L635.82 371.59L633.52 384.1L630.73 396.44L627.47 408.59L623.74 420.55L619.56 432.3L614.94 443.84L609.88 455.15L604.41 466.23L598.52 477.06L592.23 487.63L585.54 497.93L578.48 507.96L571.05 517.7L563.25 527.14L555.11 536.27L546.63 545.08L537.82 553.56L528.68 561.71L519.24 569.5L509.51 576.94L499.48 584L489.18 590.68L478.61 596.97L467.78 602.86L456.7 608.34L445.39 613.39L433.85 618.02L422.1 622.2L410.14 625.92L397.99 629.19L385.65 631.98L373.13 634.28L360.46 636.1L347.62 637.4L334.65 638.19L321.54 638.46L308.43 638.19L295.46 637.4L282.63 636.1L269.95 634.28L257.44 631.98L245.1 629.19L232.95 625.92L220.99 622.2L209.24 618.02L197.7 613.39L186.39 608.34L175.31 602.86L164.48 596.97L153.91 590.68L143.61 584L133.58 576.94L123.84 569.5L114.4 561.71L105.27 553.56L96.46 545.08L87.98 536.27L79.83 527.14L72.04 517.7L64.61 507.96L57.54 497.93L50.86 487.63L44.57 477.06L38.68 466.23L33.2 455.15L28.15 443.84L23.52 432.3L19.34 420.55L15.62 408.59L12.35 396.44L9.56 384.1L7.26 371.59L5.44 358.91L4.14 346.08L3.35 333.11L3.08 320L3.35 306.89L4.14 293.92L5.44 281.09L7.26 268.41L9.56 255.9L12.35 243.56L15.61 231.41L19.34 219.45L23.52 207.7L28.14 196.16L33.2 184.85L38.68 173.77L44.56 162.94L50.85 152.37L57.54 142.07L64.6 132.04L72.03 122.3L79.83 112.86L87.97 103.73L96.45 94.92L105.26 86.44L114.4 78.29L123.84 70.5L133.57 63.06L143.6 56L153.9 49.32L164.48 43.03L175.3 37.14L186.38 31.66L197.69 26.61L209.23 21.98L220.98 17.8L232.94 14.08L245.09 10.81L257.43 8.02L269.95 5.72L282.63 3.9L295.46 2.6L308.43 1.81L321.54 1.54L334.65 1.81L347.62 2.6ZM299.11 47.95L288.09 49.06L277.19 50.61L266.45 52.58L255.85 54.96L245.42 57.75L235.15 60.93L225.07 64.5L215.17 68.46L205.47 72.78L195.97 77.46L186.69 82.5L177.62 87.87L168.79 93.59L160.2 99.63L151.86 105.99L143.78 112.66L135.96 119.63L128.41 126.89L121.15 134.44L114.18 142.26L107.51 150.34L101.15 158.68L95.11 167.27L89.4 176.1L84.02 185.17L78.98 194.45L74.3 203.95L69.98 213.65L66.03 223.55L62.45 233.63L59.27 243.9L56.48 254.33L54.1 264.93L52.13 275.67L50.58 286.57L49.47 297.59L48.79 308.75L48.56 320.02L48.79 331.29L49.47 342.45L50.58 353.47L52.13 364.37L54.1 375.11L56.48 385.71L59.27 396.14L62.45 406.41L66.03 416.49L69.98 426.39L74.3 436.09L78.98 445.59L84.02 454.87L89.4 463.94L95.11 472.77L101.15 481.36L107.51 489.7L114.18 497.78L121.15 505.6L128.41 513.15L135.96 520.41L143.78 527.38L151.86 534.05L160.2 540.41L168.79 546.45L177.62 552.16L186.69 557.54L195.97 562.58L205.47 567.26L215.17 571.58L225.07 575.53L235.15 579.11L245.42 582.29L255.85 585.08L266.45 587.46L277.19 589.43L288.09 590.98L299.11 592.09L310.27 592.77L321.54 593L332.81 592.77L343.97 592.09L354.99 590.98L365.89 589.43L376.63 587.46L387.23 585.08L397.66 582.29L407.93 579.11L418.01 575.53L427.91 571.58L437.61 567.26L447.11 562.58L456.39 557.54L465.46 552.16L474.29 546.44L482.88 540.4L491.22 534.04L499.3 527.37L507.12 520.4L514.67 513.14L521.93 505.6L528.9 497.78L535.57 489.69L541.93 481.35L547.97 472.76L553.69 463.93L559.06 454.87L564.1 445.58L568.78 436.09L573.1 426.38L577.06 416.49L580.63 406.4L583.81 396.14L586.6 385.7L588.98 375.11L590.95 364.36L592.5 353.47L593.61 342.44L594.29 331.29L594.52 320.02L594.29 308.75L593.61 297.6L592.5 286.57L590.95 275.68L588.98 264.93L586.6 254.34L583.81 243.9L580.63 233.64L577.06 223.55L573.1 213.66L568.78 203.95L564.1 194.46L559.06 185.17L553.69 176.11L547.97 167.28L541.93 158.69L535.57 150.35L528.9 142.26L521.93 134.44L514.67 126.9L507.12 119.64L499.3 112.67L491.22 106L482.88 99.64L474.29 93.6L465.46 87.88L456.39 82.5L447.11 77.46L437.61 72.78L427.91 68.46L418.01 64.51L407.93 60.93L397.66 57.75L387.23 54.96L376.63 52.58L365.89 50.61L354.99 49.06L343.97 47.95L332.81 47.27L321.54 47.04L310.27 47.27L299.11 47.95Z" id="dsPOMNVTb"></path></defs><g><g><g><use xlink:href="#d2ThLAIXJ1" opacity="1" fill="#fca1af" fill-opacity="1"></use><g><use xlink:href="#d2ThLAIXJ1" opacity="1" fill-opacity="0" stroke="#000000" stroke-width="1" stroke-opacity="0"></use></g></g><g><use xlink:href="#b39VGlAgGk" opacity="1" fill="#000000" fill-opacity="0"></use><g><use xlink:href="#b39VGlAgGk" opacity="1" fill-opacity="0" stroke="#fca1af" stroke-width="1" stroke-opacity="1"></use></g></g><g><use xlink:href="#eNvp2KqN0" opacity="1" fill="#fca1af" fill-opacity="1"></use><g><use xlink:href="#eNvp2KqN0" opacity="1" fill-opacity="0" stroke="#000000" stroke-width="1" stroke-opacity="0"></use></g></g><g><use xlink:href="#bkH9kagP0" opacity="1" fill="#000000" fill-opacity="0"></use><g><use xlink:href="#bkH9kagP0" opacity="1" fill-opacity="0" stroke="#fca1af" stroke-width="1" stroke-opacity="1"></use></g></g><g><use xlink:href="#aqqwX670W" opacity="1" fill="#fca1af" fill-opacity="1"></use><g><use xlink:href="#aqqwX670W" opacity="1" fill-opacity="0" stroke="#000000" stroke-width="1" stroke-opacity="0"></use></g></g><g><use xlink:href="#dsPOMNVTb" opacity="1" fill="#000000" fill-opacity="0"></use><g><use xlink:href="#dsPOMNVTb" opacity="1" fill-opacity="0" stroke="#fca1af" stroke-width="1" stroke-opacity="1"></use></g></g></g></g></svg>