<svg xmlns="http://www.w3.org/2000/svg" xmlns:xlink="http://www.w3.org/1999/xlink" viewBox="0 0 24 27.5" version="1.1" x="0px" y="0px"><title>54 - Chat Conversation (communication, dialogue, discussion)</title><desc>Created with Sketch.</desc><g stroke="none" stroke-width="1" fill="none" fill-rule="evenodd"><g transform="translate(-387.000000, -493.000000)"><g transform="translate(388.000000, 494.000000)"><path d="M8,15 L20.228,15 C21.207,15 22,14.207 22,13.228 L22,1.772 C22,0.793 21.207,0 20.228,0 L1.772,0 C0.793,0 0,0.793 0,1.772 L0,13.228 C0,14.207 0.793,15 1.772,15 L3,15 L3,20 L10,13" stroke="#000000" stroke-width="2" stroke-linecap="round" stroke-linejoin="round"/><path d="M7,7 C7,8.105 6.105,9 5,9 C3.895,9 3,8.105 3,7 C3,5.895 3.895,5 5,5 C6.105,5 7,5.895 7,7" fill="#000000"/><path d="M13,7 C13,8.105 12.105,9 11,9 C9.895,9 9,8.105 9,7 C9,5.895 9.895,5 11,5 C12.105,5 13,5.895 13,7" fill="#000000"/><path d="M19,7 C19,8.105 18.105,9 17,9 C15.895,9 15,8.105 15,7 C15,5.895 15.895,5 17,5 C18.105,5 19,5.895 19,7" fill="#000000"/></g></g></g><text x="0" y="37" fill="#000000" font-size="5px" font-weight="bold" font-family="'Helvetica Neue', Helvetica, Arial-Unicode, Arial, Sans-serif">Created by Ben Davis</text><text x="0" y="42" fill="#000000" font-size="5px" font-weight="bold" font-family="'Helvetica Neue', Helvetica, Arial-Unicode, Arial, Sans-serif">from the Noun Project</text></svg>