<svg viewBox="0 0 24 27.5" xmlns="http://www.w3.org/2000/svg"><g fill="none" fill-rule="evenodd" transform="translate(1 1)"><path d="m8 15h12.228c.979 0 1.772-.793 1.772-1.772v-11.456c0-.979-.793-1.772-1.772-1.772h-18.456c-.979 0-1.772.793-1.772 1.772v11.456c0 .979.793 1.772 1.772 1.772h1.228v5l7-7" stroke="#000" stroke-linecap="round" stroke-linejoin="round" stroke-width="2"/><g fill="#000"><path d="m7 7c0 1.105-.895 2-2 2s-2-.895-2-2 .895-2 2-2 2 .895 2 2"/><path d="m13 7c0 1.105-.895 2-2 2s-2-.895-2-2 .895-2 2-2 2 .895 2 2"/><path d="m19 7c0 1.105-.895 2-2 2s-2-.895-2-2 .895-2 2-2 2 .895 2 2"/></g></g><g font-family="'Helvetica Neue', Helvetica, Arial-Unicode, Arial, Sans-serif" font-size="5" font-weight="bold"><text y="37">Created by Ben Davis</text><text y="42">from the Noun Project</text></g></svg>