<?xml version="1.0" encoding="UTF-8" standalone="no"?>
<!DOCTYPE svg PUBLIC "-//W3C//DTD SVG 1.1//EN" "http://www.w3.org/Graphics/SVG/1.1/DTD/svg11.dtd">
<svg version="1.1" xmlns="http://www.w3.org/2000/svg" xmlns:xlink="http://www.w3.org/1999/xlink" preserveAspectRatio="xMidYMid meet" viewBox="0 0 640 640" width="640" height="640"><defs><path d="M595.87 87.86L597.81 88.06L599.72 88.34L601.61 88.68L603.47 89.1L605.3 89.6L607.11 90.16L608.88 90.79L610.62 91.49L612.33 92.25L614 93.08L615.64 93.97L617.23 94.92L618.79 95.93L620.3 96.99L621.77 98.12L623.19 99.29L624.57 100.52L625.9 101.8L627.18 103.13L628.41 104.51L629.59 105.94L630.71 107.41L631.78 108.92L632.79 110.47L633.74 112.07L634.62 113.7L635.45 115.38L636.22 117.08L636.91 118.82L637.54 120.6L638.11 122.4L638.6 124.23L639.02 126.1L639.37 127.98L639.64 129.9L639.84 131.83L639.96 133.79L640 135.77L640 504.23L639.96 506.21L639.84 508.17L639.64 510.1L639.37 512.02L639.02 513.9L638.6 515.77L638.11 517.6L637.54 519.4L636.91 521.18L636.22 522.92L635.45 524.62L634.62 526.3L633.74 527.93L632.79 529.53L631.78 531.08L630.71 532.59L629.59 534.06L628.41 535.49L627.18 536.87L625.9 538.2L624.57 539.48L623.19 540.71L621.77 541.88L620.3 543.01L618.79 544.07L617.23 545.08L615.64 546.03L614 546.92L612.33 547.75L610.62 548.51L608.88 549.21L607.11 549.84L605.3 550.4L603.47 550.9L601.61 551.32L599.72 551.66L597.81 551.94L595.87 552.14L593.92 552.25L591.94 552.3L47.25 552.3L45.27 552.25L43.31 552.14L41.38 551.94L39.47 551.66L37.58 551.32L35.72 550.9L33.88 550.4L32.08 549.84L30.3 549.21L28.56 548.51L26.86 547.75L25.19 546.92L23.55 546.03L21.96 545.08L20.4 544.07L18.89 543.01L17.42 541.88L15.99 540.71L14.61 539.48L13.28 538.2L12 536.87L10.77 535.49L9.6 534.06L8.48 532.59L7.41 531.08L6.4 529.53L5.45 527.93L4.56 526.3L3.73 524.62L2.97 522.92L2.27 521.18L1.64 519.4L1.08 517.6L0.59 515.77L0.17 513.9L-0.18 512.02L-0.46 510.1L-0.65 508.17L-0.77 506.21L-0.81 504.23L-0.81 135.77L-0.77 133.79L-0.65 131.83L-0.46 129.9L-0.18 127.98L0.17 126.1L0.59 124.23L1.08 122.4L1.64 120.6L2.27 118.82L2.97 117.08L3.73 115.38L4.56 113.7L5.45 112.07L6.4 110.47L7.41 108.92L8.48 107.41L9.6 105.94L10.77 104.51L12 103.13L13.28 101.8L14.61 100.52L15.99 99.29L17.42 98.12L18.89 96.99L20.4 95.93L21.96 94.92L23.55 93.97L25.19 93.08L26.86 92.25L28.56 91.49L30.3 90.79L32.08 90.16L33.88 89.6L35.72 89.1L37.58 88.68L39.47 88.34L41.38 88.06L43.31 87.86L45.27 87.75L47.25 87.7L591.94 87.7L593.92 87.75L595.87 87.86ZM15.21 504.23L15.23 505.57L15.31 506.89L15.44 508.19L15.62 509.48L15.85 510.75L16.13 512L16.45 513.23L16.82 514.44L17.24 515.62L17.7 516.79L18.2 517.93L18.75 519.04L19.33 520.13L19.96 521.2L20.63 522.23L21.33 523.24L22.08 524.22L22.85 525.16L23.67 526.08L24.52 526.96L25.4 527.81L26.32 528.63L27.26 529.41L28.24 530.15L29.25 530.85L30.28 531.52L31.35 532.15L32.44 532.73L33.55 533.28L34.69 533.78L35.86 534.24L37.05 534.66L38.25 535.03L39.48 535.35L40.73 535.63L42 535.86L43.29 536.04L44.59 536.17L45.91 536.25L47.25 536.27L591.94 536.27L593.27 536.25L594.59 536.17L595.9 536.04L597.18 535.86L598.45 535.63L599.7 535.35L600.93 535.03L602.14 534.66L603.33 534.24L604.49 533.78L605.63 533.28L606.75 532.73L607.84 532.15L608.9 531.52L609.94 530.85L610.95 530.15L611.92 529.41L612.87 528.63L613.78 527.81L614.67 526.96L615.52 526.08L616.33 525.16L617.11 524.22L617.85 523.24L618.56 522.23L619.23 521.2L619.85 520.13L620.44 519.04L620.99 517.93L621.49 516.79L621.95 515.62L622.36 514.44L622.74 513.23L623.06 512L623.34 510.75L623.57 509.48L623.75 508.19L623.87 506.89L623.95 505.57L623.98 504.23L623.98 435.9L490.81 330.26L372.91 430.14L372.67 430.34L372.42 430.53L372.17 430.71L371.9 430.87L371.64 431.02L371.36 431.17L371.08 431.3L370.79 431.42L370.21 431.62L369.61 431.78L369.31 431.84L369 431.89L368.69 431.93L368.38 431.96L368.07 431.98L367.76 431.99L367.44 431.98L367.13 431.97L366.82 431.94L366.51 431.9L366.2 431.85L365.9 431.8L365.59 431.73L364.99 431.55L364.7 431.45L364.41 431.34L363.85 431.08L363.31 430.78L363.05 430.61L362.79 430.43L362.31 430.05L362.08 429.84L361.86 429.62L361.65 429.39L214.96 267.18L15.21 443.66L15.21 504.23ZM45.91 103.75L44.59 103.83L43.29 103.96L42 104.14L40.73 104.37L39.48 104.65L38.25 104.97L37.05 105.34L35.86 105.76L34.69 106.22L33.55 106.72L32.44 107.27L31.35 107.85L30.28 108.48L29.25 109.15L28.24 109.85L27.26 110.59L26.32 111.37L25.4 112.19L24.52 113.04L23.67 113.92L22.85 114.84L22.08 115.78L21.33 116.76L20.63 117.77L19.96 118.8L19.33 119.87L18.75 120.96L18.2 122.07L17.7 123.21L17.24 124.38L16.82 125.56L16.45 126.77L16.13 128L15.85 129.25L15.62 130.52L15.44 131.81L15.31 133.11L15.23 134.43L15.21 135.77L15.21 422.38L210.2 249.91L210.44 249.73L210.67 249.54L211.15 249.2L211.39 249.04L211.63 248.89L211.88 248.74L212.38 248.48L212.63 248.37L212.89 248.26L213.14 248.16L213.4 248.08L213.67 248L213.93 247.93L214.47 247.83L214.74 247.8L215.02 247.77L215.3 247.76L215.58 247.76L215.86 247.78L216.15 247.8L216.44 247.84L217.02 247.96L217.32 248.04L217.62 248.13L217.93 248.24L218.23 248.36L218.54 248.49L218.86 248.64L219.17 248.81L219.49 248.99L219.81 249.19L220.14 249.4L220.46 249.63L220.8 249.87L221.13 250.13L221.47 250.41L368.41 412.87L485.55 313.74L485.99 313.42L486.21 313.27L486.44 313.13L486.68 313L486.92 312.88L487.16 312.77L487.41 312.66L487.66 312.56L487.91 312.48L488.17 312.39L488.43 312.32L488.95 312.2L489.22 312.16L489.48 312.12L489.75 312.09L490.02 312.07L490.56 312.05L491.1 312.07L491.37 312.09L491.64 312.12L491.9 312.16L492.17 312.2L492.69 312.32L492.95 312.39L493.21 312.48L493.46 312.56L493.71 312.66L493.96 312.77L494.2 312.88L494.44 313L494.68 313.13L494.91 313.27L495.13 313.42L495.57 313.74L623.98 415.62L623.98 135.77L623.95 134.43L623.87 133.11L623.75 131.81L623.57 130.52L623.34 129.25L623.06 128L622.74 126.77L622.36 125.56L621.95 124.38L621.49 123.21L620.99 122.07L620.44 120.96L619.85 119.87L619.23 118.8L618.56 117.77L617.85 116.76L617.11 115.78L616.33 114.84L615.52 113.92L614.67 113.04L613.78 112.19L612.87 111.37L611.92 110.59L610.95 109.85L609.94 109.15L608.9 108.48L607.84 107.85L606.75 107.27L605.63 106.72L604.49 106.22L603.33 105.76L602.14 105.34L600.93 104.97L599.7 104.65L598.45 104.37L597.18 104.14L595.9 103.96L594.59 103.83L593.27 103.75L591.94 103.73L47.25 103.73L45.91 103.75Z" id="az36FTQpb"></path><path d="M595.87 87.86L597.81 88.06L599.72 88.34L601.61 88.68L603.47 89.1L605.3 89.6L607.11 90.16L608.88 90.79L610.62 91.49L612.33 92.25L614 93.08L615.64 93.97L617.23 94.92L618.79 95.93L620.3 96.99L621.77 98.12L623.19 99.29L624.57 100.52L625.9 101.8L627.18 103.13L628.41 104.51L629.59 105.94L630.71 107.41L631.78 108.92L632.79 110.47L633.74 112.07L634.62 113.7L635.45 115.38L636.22 117.08L636.91 118.82L637.54 120.6L638.11 122.4L638.6 124.23L639.02 126.1L639.37 127.98L639.64 129.9L639.84 131.83L639.96 133.79L640 135.77L640 504.23L639.96 506.21L639.84 508.17L639.64 510.1L639.37 512.02L639.02 513.9L638.6 515.77L638.11 517.6L637.54 519.4L636.91 521.18L636.22 522.92L635.45 524.62L634.62 526.3L633.74 527.93L632.79 529.53L631.78 531.08L630.71 532.59L629.59 534.06L628.41 535.49L627.18 536.87L625.9 538.2L624.57 539.48L623.19 540.71L621.77 541.88L620.3 543.01L618.79 544.07L617.23 545.08L615.64 546.03L614 546.92L612.33 547.75L610.62 548.51L608.88 549.21L607.11 549.84L605.3 550.4L603.47 550.9L601.61 551.32L599.72 551.66L597.81 551.94L595.87 552.14L593.92 552.25L591.94 552.3L47.25 552.3L45.27 552.25L43.31 552.14L41.38 551.94L39.47 551.66L37.58 551.32L35.72 550.9L33.88 550.4L32.08 549.84L30.3 549.21L28.56 548.51L26.86 547.75L25.19 546.92L23.55 546.03L21.96 545.08L20.4 544.07L18.89 543.01L17.42 541.88L15.99 540.71L14.61 539.48L13.28 538.2L12 536.87L10.77 535.49L9.6 534.06L8.48 532.59L7.41 531.08L6.4 529.53L5.45 527.93L4.56 526.3L3.73 524.62L2.97 522.92L2.27 521.18L1.64 519.4L1.08 517.6L0.59 515.77L0.17 513.9L-0.18 512.02L-0.46 510.1L-0.65 508.17L-0.77 506.21L-0.81 504.23L-0.81 135.77L-0.77 133.79L-0.65 131.83L-0.46 129.9L-0.18 127.98L0.17 126.1L0.59 124.23L1.08 122.4L1.64 120.6L2.27 118.82L2.97 117.08L3.73 115.38L4.56 113.7L5.45 112.07L6.4 110.47L7.41 108.92L8.48 107.41L9.6 105.94L10.77 104.51L12 103.13L13.28 101.8L14.61 100.52L15.99 99.29L17.42 98.12L18.89 96.99L20.4 95.93L21.96 94.92L23.55 93.97L25.19 93.08L26.86 92.25L28.56 91.49L30.3 90.79L32.08 90.16L33.88 89.6L35.72 89.1L37.58 88.68L39.47 88.34L41.38 88.06L43.31 87.86L45.27 87.75L47.25 87.7L591.94 87.7L593.92 87.75L595.87 87.86ZM15.21 504.23L15.23 505.57L15.31 506.89L15.44 508.19L15.62 509.48L15.85 510.75L16.13 512L16.45 513.23L16.82 514.44L17.24 515.62L17.7 516.79L18.2 517.93L18.75 519.04L19.33 520.13L19.96 521.2L20.63 522.23L21.33 523.24L22.08 524.22L22.85 525.16L23.67 526.08L24.52 526.96L25.4 527.81L26.32 528.63L27.26 529.41L28.24 530.15L29.25 530.85L30.28 531.52L31.35 532.15L32.44 532.73L33.55 533.28L34.69 533.78L35.86 534.24L37.05 534.66L38.25 535.03L39.48 535.35L40.73 535.63L42 535.86L43.29 536.04L44.59 536.17L45.91 536.25L47.25 536.27L591.94 536.27L593.27 536.25L594.59 536.17L595.9 536.04L597.18 535.86L598.45 535.63L599.7 535.35L600.93 535.03L602.14 534.66L603.33 534.24L604.49 533.78L605.63 533.28L606.75 532.73L607.84 532.15L608.9 531.52L609.94 530.85L610.95 530.15L611.92 529.41L612.87 528.63L613.78 527.81L614.67 526.96L615.52 526.08L616.33 525.16L617.11 524.22L617.85 523.24L618.56 522.23L619.23 521.2L619.85 520.13L620.44 519.04L620.99 517.93L621.49 516.79L621.95 515.62L622.36 514.44L622.74 513.23L623.06 512L623.34 510.75L623.57 509.48L623.75 508.19L623.87 506.89L623.95 505.57L623.98 504.23L623.98 435.9L490.81 330.26L372.91 430.14L372.67 430.34L372.42 430.53L372.17 430.71L371.9 430.87L371.64 431.02L371.36 431.17L371.08 431.3L370.79 431.42L370.21 431.62L369.61 431.78L369.31 431.84L369 431.89L368.69 431.93L368.38 431.96L368.07 431.98L367.76 431.99L367.44 431.98L367.13 431.97L366.82 431.94L366.51 431.9L366.2 431.85L365.9 431.8L365.59 431.73L364.99 431.55L364.7 431.45L364.41 431.34L363.85 431.08L363.31 430.78L363.05 430.61L362.79 430.43L362.31 430.05L362.08 429.84L361.86 429.62L361.65 429.39L214.96 267.18L15.21 443.66L15.21 504.23ZM45.91 103.75L44.59 103.83L43.29 103.96L42 104.14L40.73 104.37L39.48 104.65L38.25 104.97L37.05 105.34L35.86 105.76L34.69 106.22L33.55 106.72L32.44 107.27L31.35 107.85L30.28 108.48L29.25 109.15L28.24 109.85L27.26 110.59L26.32 111.37L25.4 112.19L24.52 113.04L23.67 113.92L22.85 114.84L22.08 115.78L21.33 116.76L20.63 117.77L19.96 118.8L19.33 119.87L18.75 120.96L18.2 122.07L17.7 123.21L17.24 124.38L16.82 125.56L16.45 126.77L16.13 128L15.85 129.25L15.62 130.52L15.44 131.81L15.31 133.11L15.23 134.43L15.21 135.77L15.21 422.38L210.2 249.91L210.44 249.73L210.67 249.54L211.15 249.2L211.39 249.04L211.63 248.89L211.88 248.74L212.38 248.48L212.63 248.37L212.89 248.26L213.14 248.16L213.4 248.08L213.67 248L213.93 247.93L214.47 247.83L214.74 247.8L215.02 247.77L215.3 247.76L215.58 247.76L215.86 247.78L216.15 247.8L216.44 247.84L217.02 247.96L217.32 248.04L217.62 248.13L217.93 248.24L218.23 248.36L218.54 248.49L218.86 248.64L219.17 248.81L219.49 248.99L219.81 249.19L220.14 249.4L220.46 249.63L220.8 249.87L221.13 250.13L221.47 250.41L368.41 412.87L485.55 313.74L485.99 313.42L486.21 313.27L486.44 313.13L486.68 313L486.92 312.88L487.16 312.77L487.41 312.66L487.66 312.56L487.91 312.48L488.17 312.39L488.43 312.32L488.95 312.2L489.22 312.16L489.48 312.12L489.75 312.09L490.02 312.07L490.56 312.05L491.1 312.07L491.37 312.09L491.64 312.12L491.9 312.16L492.17 312.2L492.69 312.32L492.95 312.39L493.21 312.48L493.46 312.56L493.71 312.66L493.96 312.77L494.2 312.88L494.44 313L494.68 313.13L494.91 313.27L495.13 313.42L495.57 313.74L623.98 415.62L623.98 135.77L623.95 134.43L623.87 133.11L623.75 131.81L623.57 130.52L623.34 129.25L623.06 128L622.74 126.77L622.36 125.56L621.95 124.38L621.49 123.21L620.99 122.07L620.44 120.96L619.85 119.87L619.23 118.8L618.56 117.77L617.85 116.76L617.11 115.78L616.33 114.84L615.52 113.92L614.67 113.04L613.78 112.19L612.87 111.37L611.92 110.59L610.95 109.85L609.94 109.15L608.9 108.48L607.84 107.85L606.75 107.27L605.63 106.72L604.49 106.22L603.33 105.76L602.14 105.34L600.93 104.97L599.7 104.65L598.45 104.37L597.18 104.14L595.9 103.96L594.59 103.83L593.27 103.75L591.94 103.73L47.25 103.73L45.91 103.75Z" id="f1eGWaWred"></path></defs><g><g><g><use xlink:href="#az36FTQpb" opacity="1" fill="#fca1af" fill-opacity="1"></use><g><use xlink:href="#az36FTQpb" opacity="1" fill-opacity="0" stroke="#000000" stroke-width="1" stroke-opacity="0"></use></g></g><g><use xlink:href="#f1eGWaWred" opacity="1" fill="#000000" fill-opacity="0"></use><g><use xlink:href="#f1eGWaWred" opacity="1" fill-opacity="0" stroke="#000000" stroke-width="1" stroke-opacity="0"></use></g></g></g></g></svg>