<?xml version="1.0" encoding="UTF-8" standalone="no"?>
<!DOCTYPE svg PUBLIC "-//W3C//DTD SVG 1.1//EN" "http://www.w3.org/Graphics/SVG/1.1/DTD/svg11.dtd">
<svg version="1.1" xmlns="http://www.w3.org/2000/svg" xmlns:xlink="http://www.w3.org/1999/xlink" preserveAspectRatio="xMidYMid meet" viewBox="0 0 640 640" width="640" height="640"><defs><path d="M459.04 5.58L461.35 5.81L463.63 6.14L465.88 6.55L468.1 7.05L470.29 7.64L472.44 8.31L474.56 9.06L476.64 9.89L478.67 10.8L480.66 11.78L482.61 12.84L484.51 13.97L486.37 15.17L488.17 16.44L489.92 17.78L491.62 19.18L493.26 20.64L494.85 22.17L496.37 23.75L497.83 25.39L499.24 27.09L500.57 28.84L501.84 30.64L503.04 32.5L504.17 34.4L505.23 36.35L506.21 38.34L507.12 40.38L507.95 42.45L508.7 44.57L509.37 46.72L509.96 48.91L510.46 51.13L510.87 53.38L511.2 55.66L511.43 57.98L511.58 60.31L511.62 62.67L511.62 204.21L620.94 299.51L621.56 300.08L622.15 300.66L622.71 301.27L623.24 301.89L623.74 302.53L624.21 303.19L624.66 303.86L625.07 304.55L625.46 305.24L625.81 305.95L626.14 306.67L626.44 307.4L626.71 308.14L626.95 308.89L627.16 309.65L627.34 310.41L627.49 311.18L627.61 311.95L627.7 312.72L627.77 313.5L627.8 314.28L627.8 315.06L627.77 315.84L627.72 316.62L627.63 317.4L627.51 318.18L627.37 318.95L627.19 319.72L626.98 320.48L626.75 321.23L626.48 321.98L626.18 322.72L625.85 323.45L625.49 324.17L625.1 324.88L624.68 325.57L624.23 326.26L623.75 326.93L623.24 327.58L622.7 328.22L622.13 328.84L621.54 329.42L620.93 329.98L620.31 330.51L619.67 331.02L619.01 331.49L618.34 331.93L617.66 332.35L616.96 332.73L616.25 333.09L615.53 333.42L614.8 333.72L614.06 333.98L613.31 334.22L612.56 334.43L611.8 334.61L611.03 334.77L610.26 334.89L609.48 334.98L608.7 335.04L607.92 335.07L607.14 335.08L606.36 335.05L605.58 334.99L604.8 334.91L604.03 334.79L603.26 334.64L602.49 334.47L601.73 334.26L600.97 334.02L600.22 333.75L599.49 333.46L598.76 333.13L598.04 332.77L597.33 332.38L596.63 331.96L595.95 331.51L595.28 331.03L594.62 330.51L593.98 329.97L559.88 300.12L559.88 552.38L559.81 555.99L559.59 559.57L559.23 563.1L558.73 566.6L558.1 570.04L557.33 573.44L556.44 576.78L555.41 580.08L554.27 583.31L553 586.49L551.61 589.6L550.1 592.65L548.48 595.63L546.75 598.54L544.92 601.37L542.98 604.13L540.93 606.81L538.79 609.4L536.55 611.91L534.22 614.34L531.8 616.67L529.28 618.91L526.69 621.05L524.01 623.1L521.25 625.04L518.42 626.87L515.51 628.6L512.53 630.22L509.48 631.73L506.37 633.11L503.19 634.38L499.96 635.53L496.67 636.56L493.32 637.45L489.92 638.22L486.48 638.85L482.98 639.35L479.45 639.71L475.88 639.93L472.26 640L181.65 640L178.04 639.93L174.46 639.71L170.93 639.35L167.44 638.85L163.99 638.22L160.59 637.45L157.25 636.56L153.95 635.53L150.72 634.38L147.54 633.11L144.43 631.73L141.38 630.22L138.4 628.6L135.49 626.87L132.66 625.04L129.9 623.1L127.22 621.05L124.63 618.91L122.12 616.67L119.69 614.34L117.36 611.91L115.12 609.4L112.98 606.81L110.94 604.13L108.99 601.37L107.16 598.54L105.43 595.63L103.81 592.65L102.3 589.6L100.92 586.49L99.65 583.31L98.5 580.08L97.47 576.78L96.58 573.44L95.81 570.04L95.18 566.6L94.68 563.1L94.32 559.57L94.1 555.99L94.03 552.38L94.03 300.65L59.73 330.11L59.09 330.62L58.44 331.09L57.77 331.54L57.1 331.96L56.41 332.35L55.71 332.71L55 333.05L54.28 333.35L53.56 333.62L52.82 333.87L52.08 334.08L51.34 334.27L50.59 334.43L49.83 334.55L49.07 334.65L48.31 334.72L47.55 334.77L46.79 334.78L46.03 334.77L45.27 334.72L44.51 334.65L43.76 334.55L43.01 334.42L42.26 334.27L41.52 334.08L40.79 333.87L40.06 333.63L39.34 333.36L38.64 333.06L37.94 332.74L37.25 332.39L36.57 332.01L35.91 331.6L35.25 331.17L34.62 330.71L34 330.22L33.39 329.7L32.8 329.15L32.23 328.58L31.68 327.98L31.14 327.35L30.63 326.7L30.15 326.04L29.7 325.36L29.28 324.67L28.89 323.96L28.53 323.25L28.2 322.52L27.91 321.79L27.64 321.04L27.4 320.29L27.2 319.54L27.02 318.78L26.87 318.01L26.75 317.24L26.67 316.47L26.61 315.69L26.58 314.91L26.58 314.14L26.61 313.36L26.67 312.59L26.76 311.82L26.88 311.05L27.03 310.29L27.21 309.53L27.42 308.78L27.66 308.03L27.92 307.3L28.22 306.57L28.54 305.85L28.9 305.15L29.28 304.45L29.69 303.77L30.13 303.11L30.6 302.45L31.1 301.82L31.62 301.2L32.18 300.59L32.76 300.01L33.37 299.44L280.99 86.94L283.11 85.19L285.28 83.53L287.5 81.96L289.76 80.48L292.05 79.09L294.39 77.79L296.76 76.58L299.16 75.46L301.59 74.43L304.05 73.49L306.53 72.65L309.04 71.89L311.56 71.22L314.11 70.64L316.66 70.15L319.23 69.75L321.81 69.44L324.4 69.22L326.99 69.09L329.59 69.05L332.18 69.1L334.77 69.24L337.36 69.47L339.94 69.79L342.51 70.2L345.06 70.7L347.6 71.29L350.13 71.97L352.63 72.74L355.11 73.6L357.56 74.55L359.99 75.59L362.39 76.72L364.75 77.94L367.08 79.25L369.37 80.65L371.62 82.13L373.83 83.71L375.99 85.38L378.11 87.14L397.05 103.72L397.05 62.67L397.1 60.31L397.24 57.98L397.47 55.66L397.8 53.38L398.21 51.13L398.71 48.91L399.3 46.72L399.97 44.57L400.72 42.45L401.55 40.38L402.46 38.34L403.44 36.35L404.5 34.4L405.63 32.5L406.83 30.64L408.1 28.84L409.44 27.09L410.84 25.39L412.3 23.75L413.83 22.17L415.41 20.64L417.05 19.18L418.75 17.78L420.5 16.44L422.31 15.17L424.16 13.97L426.06 12.84L428.01 11.78L430 10.8L432.04 9.89L434.11 9.06L436.23 8.31L438.38 7.64L440.57 7.05L442.79 6.55L445.04 6.14L447.33 5.81L449.64 5.58L451.98 5.43L454.34 5.39L456.7 5.43L459.04 5.58ZM327.06 109.52L325.88 109.62L324.71 109.76L323.54 109.95L322.37 110.18L321.22 110.44L320.07 110.75L318.93 111.1L317.8 111.49L316.69 111.93L315.58 112.4L314.49 112.91L313.42 113.47L312.36 114.07L311.32 114.71L310.29 115.39L309.29 116.11L308.3 116.87L307.34 117.67L134.47 265.94L134.47 552.38L134.51 554.33L134.63 556.25L134.82 558.16L135.09 560.04L135.43 561.89L135.84 563.72L136.32 565.52L136.87 567.3L137.49 569.04L138.18 570.75L138.92 572.42L139.73 574.06L140.61 575.67L141.54 577.23L142.53 578.76L143.57 580.25L144.67 581.69L145.83 583.09L147.03 584.44L148.29 585.74L149.59 587L150.94 588.2L152.34 589.36L153.78 590.46L155.27 591.5L156.8 592.49L158.36 593.42L159.97 594.3L161.61 595.11L163.28 595.85L164.99 596.54L166.73 597.16L168.51 597.71L170.31 598.19L172.14 598.6L173.99 598.94L175.87 599.21L177.78 599.41L179.7 599.52L181.65 599.56L472.26 599.56L474.21 599.52L476.13 599.41L478.04 599.21L479.92 598.94L481.77 598.6L483.6 598.19L485.4 597.71L487.18 597.16L488.92 596.54L490.63 595.85L492.3 595.11L493.95 594.3L495.55 593.42L497.12 592.49L498.64 591.5L500.13 590.46L501.57 589.36L502.97 588.2L504.32 587L505.62 585.74L506.88 584.44L508.09 583.09L509.24 581.69L510.34 580.25L511.39 578.76L512.37 577.23L513.31 575.67L514.18 574.06L514.99 572.42L515.74 570.75L516.42 569.04L517.04 567.3L517.59 565.52L518.07 563.72L518.48 561.89L518.83 560.04L519.09 558.16L519.29 556.25L519.4 554.33L519.44 552.38L519.44 264.6L351.49 117.67L350.53 116.87L349.54 116.11L348.54 115.39L347.52 114.71L346.47 114.07L345.41 113.47L344.34 112.91L343.25 112.4L342.14 111.93L341.03 111.49L339.9 111.1L338.76 110.75L337.61 110.44L336.46 110.18L335.29 109.95L334.13 109.76L332.95 109.62L331.77 109.52L330.6 109.46L329.42 109.44L328.24 109.46L327.06 109.52ZM452.95 45.88L452.28 45.95L451.6 46.05L450.94 46.17L450.29 46.31L449.64 46.49L449.01 46.68L448.39 46.9L447.78 47.15L447.18 47.42L446.59 47.71L446.02 48.02L445.46 48.35L444.92 48.7L444.39 49.08L443.87 49.47L443.37 49.88L442.89 50.31L442.42 50.76L441.97 51.23L441.54 51.71L441.13 52.21L440.74 52.72L440.36 53.25L440.01 53.8L439.68 54.36L439.37 54.93L439.08 55.52L438.81 56.12L438.57 56.73L438.35 57.35L438.15 57.98L437.98 58.62L437.83 59.28L437.71 59.94L437.61 60.61L437.54 61.29L437.5 61.98L437.49 62.67L437.49 139.37L471.19 168.82L471.19 62.67L471.17 61.98L471.13 61.29L471.06 60.61L470.97 59.94L470.84 59.28L470.7 58.62L470.52 57.98L470.33 57.35L470.11 56.73L469.86 56.12L469.59 55.52L469.31 54.93L468.99 54.36L468.66 53.8L468.31 53.25L467.94 52.72L467.54 52.21L467.13 51.71L466.7 51.23L466.25 50.76L465.78 50.31L465.3 49.88L464.8 49.47L464.29 49.08L463.76 48.7L463.21 48.35L462.65 48.02L462.08 47.71L461.49 47.42L460.9 47.15L460.28 46.9L459.66 46.68L459.03 46.49L458.39 46.31L457.73 46.17L457.07 46.05L456.4 45.95L455.72 45.88L455.03 45.84L454.34 45.82L453.64 45.84L452.95 45.88Z" id="b4hwsUBYS"></path><path d="M283.37 310.52L284.66 310.63L285.95 310.76L287.23 310.91L288.5 311.09L289.78 311.28L291.04 311.5L292.31 311.74L293.57 312L294.82 312.28L296.06 312.58L297.31 312.9L298.54 313.24L299.77 313.6L300.99 313.98L302.21 314.38L303.42 314.81L304.62 315.25L305.81 315.71L306.99 316.19L308.17 316.69L309.34 317.21L310.5 317.75L311.65 318.31L312.8 318.89L313.93 319.49L315.05 320.11L316.17 320.74L317.27 321.4L318.36 322.07L319.45 322.76L320.52 323.47L321.58 324.2L322.63 324.95L323.67 325.72L324.69 326.5L325.71 327.3L326.71 328.12L327.7 328.96L328.83 328.2L329.98 327.45L331.13 326.72L332.29 326.01L333.47 325.32L334.65 324.64L335.84 323.99L337.04 323.35L338.25 322.73L339.46 322.13L340.69 321.54L341.92 320.98L343.16 320.43L344.41 319.9L345.67 319.39L346.93 318.9L348.2 318.43L349.47 317.98L350.76 317.55L352.04 317.13L353.34 316.73L354.64 316.36L355.94 316L357.26 315.66L358.57 315.34L359.89 315.04L361.22 314.76L362.55 314.5L363.88 314.26L365.22 314.04L366.56 313.84L367.91 313.66L369.26 313.49L370.61 313.35L371.97 313.23L373.33 313.13L374.69 313.05L376.05 312.98L377.42 312.94L378.78 312.92L379.39 312.92L380.93 312.94L382.47 312.98L384.01 313.06L385.54 313.17L387.07 313.31L388.59 313.48L390.1 313.68L391.61 313.91L393.11 314.17L394.61 314.45L396.1 314.77L397.58 315.12L399.05 315.49L400.51 315.9L401.96 316.33L403.41 316.79L404.84 317.28L406.27 317.8L407.68 318.35L409.08 318.92L410.47 319.53L411.85 320.15L413.21 320.81L414.57 321.49L415.91 322.21L417.23 322.94L418.54 323.71L419.84 324.5L421.12 325.31L422.39 326.15L423.64 327.02L424.87 327.92L426.09 328.84L427.29 329.78L428.48 330.75L429.64 331.75L430.79 332.76L431.92 333.81L433.03 334.88L434.12 335.97L436.53 338.58L438.82 341.26L440.99 344L443.03 346.81L444.95 349.68L446.75 352.61L448.42 355.59L449.97 358.61L451.39 361.68L452.69 364.8L453.87 367.95L454.92 371.13L455.85 374.35L456.65 377.59L457.34 380.85L457.89 384.13L458.33 387.43L458.64 390.74L458.82 394.05L458.88 397.37L458.82 400.69L458.64 404L458.33 407.31L457.89 410.61L457.34 413.89L456.65 417.15L455.85 420.39L454.92 423.61L453.87 426.79L452.69 429.94L451.39 433.06L449.97 436.13L448.42 439.15L446.75 442.13L444.95 445.06L443.03 447.93L440.99 450.74L438.82 453.48L436.53 456.16L434.12 458.77L346.5 543.08L345.67 543.86L344.83 544.59L343.95 545.28L343.06 545.94L342.15 546.55L341.22 547.13L340.28 547.66L339.31 548.16L338.34 548.61L337.35 549.03L336.35 549.41L335.34 549.74L334.31 550.04L333.28 550.3L332.24 550.52L331.2 550.69L330.15 550.83L329.1 550.93L328.05 550.99L326.99 551.01L325.93 550.99L324.88 550.93L323.83 550.83L322.78 550.69L321.73 550.52L320.7 550.3L319.67 550.04L318.64 549.74L317.63 549.41L316.63 549.03L315.64 548.61L314.66 548.16L313.7 547.66L312.76 547.13L311.83 546.55L310.92 545.94L310.02 545.28L309.15 544.59L308.3 543.86L307.48 543.08L220.54 459.17L218.09 456.57L215.78 453.89L213.58 451.15L211.51 448.34L209.57 445.47L207.75 442.54L206.06 439.56L204.49 436.53L203.04 433.45L201.72 430.33L200.52 427.17L199.45 423.98L198.51 420.76L197.68 417.51L196.99 414.23L196.41 410.94L195.97 407.63L195.64 404.31L195.44 400.99L195.37 397.65L195.42 394.32L195.6 390.99L195.9 387.67L196.33 384.36L196.88 381.06L197.55 377.79L198.35 374.53L199.28 371.3L200.33 368.1L201.5 364.94L202.8 361.81L204.23 358.72L205.78 355.68L207.46 352.69L209.26 349.75L211.18 346.86L213.23 344.04L215.41 341.28L217.71 338.59L220.13 335.97L221.33 334.75L222.56 333.56L223.81 332.4L225.08 331.26L226.36 330.15L227.67 329.07L229 328.02L230.35 326.99L231.72 326L233.1 325.03L234.5 324.09L235.92 323.18L237.36 322.3L238.81 321.45L240.28 320.63L241.77 319.84L243.27 319.08L244.78 318.35L246.31 317.65L247.85 316.98L249.4 316.34L250.97 315.74L252.55 315.16L254.14 314.62L255.74 314.11L257.36 313.63L258.98 313.18L260.61 312.76L262.25 312.38L263.9 312.03L265.56 311.71L267.23 311.42L268.9 311.17L270.58 310.95L272.27 310.77L273.96 310.62L275.66 310.5L277.37 310.42L279.08 310.37L280.79 310.36L282.08 310.43L283.37 310.52ZM279 350.9L278.11 350.95L277.22 351.01L276.34 351.09L275.45 351.19L274.57 351.31L273.7 351.44L272.83 351.59L271.96 351.76L271.1 351.94L270.24 352.15L269.39 352.37L268.54 352.6L267.7 352.86L266.86 353.13L266.03 353.42L265.21 353.72L264.39 354.04L263.58 354.37L262.77 354.73L261.97 355.09L261.18 355.48L260.4 355.88L259.62 356.29L258.86 356.72L258.1 357.17L257.35 357.63L256.61 358.11L255.88 358.6L255.15 359.11L254.44 359.63L253.74 360.17L253.04 360.73L252.36 361.29L251.69 361.87L251.03 362.47L250.38 363.08L249.74 363.71L249.11 364.34L247.8 365.75L246.56 367.2L245.39 368.68L244.29 370.2L243.25 371.75L242.28 373.33L241.37 374.93L240.53 376.57L239.76 378.23L239.06 379.91L238.42 381.61L237.85 383.33L237.35 385.07L236.91 386.82L236.55 388.58L236.24 390.35L236.01 392.13L235.84 393.92L235.74 395.71L235.71 397.5L235.74 399.3L235.84 401.09L236.01 402.88L236.24 404.66L236.55 406.43L236.91 408.19L237.35 409.94L237.85 411.68L238.42 413.4L239.06 415.1L239.76 416.78L240.53 418.44L241.37 420.07L242.28 421.68L243.25 423.26L244.29 424.81L245.39 426.33L246.56 427.81L247.8 429.26L249.11 430.66L326.96 505.68L404.93 430.12L406.2 428.71L407.4 427.26L408.54 425.77L409.61 424.25L410.61 422.7L411.55 421.12L412.42 419.52L413.23 417.89L413.97 416.23L414.65 414.56L415.26 412.87L415.81 411.16L416.29 409.43L416.7 407.69L417.05 405.94L417.34 404.18L417.55 402.41L417.71 400.64L417.79 398.86L417.81 397.09L417.77 395.31L417.66 393.53L417.49 391.76L417.25 390L416.94 388.24L416.57 386.5L416.14 384.76L415.64 383.04L415.07 381.34L414.44 379.65L413.74 377.99L412.98 376.34L412.15 374.72L411.26 373.13L410.3 371.56L409.28 370.02L408.19 368.52L407.03 367.05L405.81 365.61L404.53 364.21L404.01 363.69L403.48 363.18L402.4 362.2L401.84 361.73L401.28 361.27L400.7 360.82L400.12 360.38L399.54 359.96L398.94 359.55L398.34 359.15L397.72 358.76L397.11 358.39L396.48 358.03L395.85 357.68L395.21 357.34L394.56 357.02L393.91 356.71L393.26 356.41L392.59 356.13L391.92 355.86L391.25 355.6L390.57 355.36L389.89 355.13L389.2 354.91L388.51 354.71L387.81 354.52L387.11 354.35L386.4 354.19L385.7 354.04L384.98 353.91L384.27 353.79L383.55 353.68L382.83 353.59L382.1 353.52L381.38 353.46L380.65 353.41L379.92 353.38L379.18 353.36L378.45 353.36L377.41 353.4L376.37 353.47L375.33 353.55L374.3 353.66L373.27 353.78L372.25 353.93L371.23 354.09L370.21 354.27L369.2 354.47L368.2 354.69L367.2 354.93L366.2 355.19L365.21 355.47L364.23 355.76L363.26 356.08L362.29 356.41L361.32 356.76L360.37 357.13L359.42 357.52L358.48 357.92L357.54 358.34L356.62 358.78L355.7 359.24L354.79 359.72L353.89 360.21L353 360.72L352.12 361.25L351.25 361.79L350.39 362.35L349.54 362.93L348.7 363.52L347.87 364.13L347.05 364.76L346.24 365.4L345.45 366.06L344.66 366.74L343.89 367.43L343.13 368.14L342.38 368.86L341.65 369.6L341.03 370.18L340.39 370.73L339.74 371.25L339.07 371.74L338.39 372.2L337.69 372.63L336.98 373.04L336.26 373.41L335.53 373.75L334.79 374.06L334.04 374.34L333.28 374.6L332.51 374.82L331.74 375.01L330.96 375.18L330.18 375.31L329.39 375.41L328.61 375.49L327.81 375.53L327.02 375.55L326.23 375.53L325.44 375.49L324.65 375.41L323.87 375.31L323.08 375.18L322.31 375.01L321.53 374.82L320.77 374.6L320.01 374.34L319.26 374.06L318.52 373.75L317.78 373.41L317.06 373.04L316.35 372.63L315.66 372.2L314.97 371.74L314.31 371.25L313.65 370.73L313.02 370.18L312.4 369.6L311.48 368.71L310.57 367.84L309.67 366.99L308.76 366.16L307.86 365.35L306.96 364.56L306.07 363.79L305.18 363.05L304.3 362.32L303.42 361.61L302.55 360.93L301.68 360.26L300.82 359.62L299.96 359L299.11 358.4L298.27 357.82L297.44 357.27L296.61 356.73L295.79 356.22L294.98 355.73L294.17 355.27L293.37 354.82L292.59 354.4L291.81 354.01L291.04 353.63L290.28 353.28L289.53 352.95L288.79 352.64L288.06 352.36L287.34 352.11L286.63 351.87L285.93 351.66L285.25 351.48L284.57 351.32L283.91 351.18L283.26 351.07L282.62 350.98L282 350.92L281.39 350.88L280.79 350.87L279.89 350.87L279 350.9Z" id="ahTeUFsL6"></path></defs><g><g><g><use xlink:href="#b4hwsUBYS" opacity="1" fill="#fca1af" fill-opacity="1"></use><g><use xlink:href="#b4hwsUBYS" opacity="1" fill-opacity="0" stroke="#000000" stroke-width="1" stroke-opacity="0"></use></g></g><g><use xlink:href="#ahTeUFsL6" opacity="1" fill="#fca1af" fill-opacity="1"></use><g><use xlink:href="#ahTeUFsL6" opacity="1" fill-opacity="0" stroke="#000000" stroke-width="1" stroke-opacity="0"></use></g></g></g></g></svg>