<?xml version="1.0" encoding="UTF-8" standalone="no"?>
<!DOCTYPE svg PUBLIC "-//W3C//DTD SVG 1.1//EN" "http://www.w3.org/Graphics/SVG/1.1/DTD/svg11.dtd">
<svg version="1.1" xmlns="http://www.w3.org/2000/svg" xmlns:xlink="http://www.w3.org/1999/xlink" preserveAspectRatio="xMidYMid meet" viewBox="0 0 640 640" width="640" height="640"><defs><path d="M320 407.55C368.35 407.55 407.55 368.35 407.55 320C407.55 271.65 368.35 232.45 320 232.45C271.65 232.45 232.45 271.65 232.45 320C232.45 368.35 271.65 407.55 320 407.55Z" id="h1TVblFFp"></path><path d="M320 635.17C368.35 635.17 407.55 595.97 407.55 547.62C407.55 499.27 368.35 460.08 320 460.08C271.65 460.08 232.45 499.27 232.45 547.62C232.45 595.97 271.65 635.17 320 635.17Z" id="bQXNlTYjv"></path><path d="M320 179.92C368.35 179.92 407.55 140.73 407.55 92.38C407.55 44.03 368.35 4.83 320 4.83C271.65 4.83 232.45 44.03 232.45 92.38C232.45 140.73 271.65 179.92 320 179.92Z" id="enV4Devbn"></path></defs><g><g><g><use xlink:href="#h1TVblFFp" opacity="1" fill="#fca1af" fill-opacity="1"></use><g><use xlink:href="#h1TVblFFp" opacity="1" fill-opacity="0" stroke="#000000" stroke-width="1" stroke-opacity="0"></use></g></g><g><use xlink:href="#bQXNlTYjv" opacity="1" fill="#fca1af" fill-opacity="1"></use><g><use xlink:href="#bQXNlTYjv" opacity="1" fill-opacity="0" stroke="#000000" stroke-width="1" stroke-opacity="0"></use></g></g><g><use xlink:href="#enV4Devbn" opacity="1" fill="#fca1af" fill-opacity="1"></use><g><use xlink:href="#enV4Devbn" opacity="1" fill-opacity="0" stroke="#000000" stroke-width="1" stroke-opacity="0"></use></g></g></g></g></svg>