<?xml version="1.0" encoding="UTF-8" standalone="no"?>
<!DOCTYPE svg PUBLIC "-//W3C//DTD SVG 1.1//EN" "http://www.w3.org/Graphics/SVG/1.1/DTD/svg11.dtd">
<svg version="1.1" xmlns="http://www.w3.org/2000/svg" xmlns:xlink="http://www.w3.org/1999/xlink" preserveAspectRatio="xMidYMid meet" viewBox="0 0 640 640" width="640" height="640"><defs><path d="M311.91 599.4C314.37 601 317.19 601.79 320 601.79C322.79 601.79 325.58 601.01 328.03 599.44C331.17 597.42 405.88 549.24 481.85 479.69C585.79 384.54 638.49 299.14 638.49 225.87C638.49 178.22 619.41 129.44 586.13 92.04C551.12 52.68 505.79 31.01 458.5 31.01C404.35 31.01 354.04 54.69 320.17 95.25C287.04 54.69 236.63 31.01 181.5 31.01C133.79 31.01 88.32 52.69 53.45 92.06C20.44 129.33 1.51 178.1 1.51 225.87C1.5 298.25 54.2 383.37 158.13 478.87C234.08 548.67 308.77 597.36 311.91 599.4Z" id="cj9IGWw5K"></path></defs><g><g><g><use xlink:href="#cj9IGWw5K" opacity="1" fill="#000000" fill-opacity="1"></use><g><use xlink:href="#cj9IGWw5K" opacity="1" fill-opacity="0" stroke="#000000" stroke-width="1" stroke-opacity="0"></use></g></g></g></g></svg>