<?xml version="1.0" encoding="UTF-8" standalone="no"?>
<!DOCTYPE svg PUBLIC "-//W3C//DTD SVG 1.1//EN" "http://www.w3.org/Graphics/SVG/1.1/DTD/svg11.dtd">
<svg version="1.1" xmlns="http://www.w3.org/2000/svg" xmlns:xlink="http://www.w3.org/1999/xlink" preserveAspectRatio="xMidYMid meet" viewBox="0 0 640 640" width="640" height="640"><defs><path d="M459.8 33.18L463.42 33.38L467.03 33.67L470.62 34.04L474.21 34.49L477.78 35.02L481.34 35.63L484.88 36.32L488.41 37.09L491.92 37.94L495.42 38.87L498.9 39.87L502.36 40.96L505.79 42.12L509.21 43.36L512.61 44.67L515.99 46.06L519.34 47.53L522.68 49.07L525.98 50.69L529.27 52.38L532.52 54.15L535.75 55.99L538.95 57.91L542.13 59.9L545.27 61.96L548.39 64.09L551.48 66.3L554.53 68.58L557.55 70.93L560.54 73.35L563.5 75.84L566.42 78.4L569.3 81.03L572.15 83.73L574.96 86.5L577.74 89.34L580.47 92.25L583.17 95.22L585.67 98.08L588.11 100.99L590.5 103.93L592.84 106.91L595.12 109.94L597.34 113L599.51 116.09L601.61 119.22L603.66 122.39L605.66 125.59L607.59 128.82L609.47 132.08L611.28 135.36L613.04 138.68L614.74 142.03L616.37 145.4L617.95 148.79L619.46 152.21L620.91 155.65L622.29 159.11L623.62 162.59L624.88 166.08L626.08 169.6L627.21 173.13L628.27 176.68L629.28 180.24L630.21 183.81L631.08 187.4L631.88 190.99L632.62 194.59L633.28 198.2L633.88 201.82L634.41 205.45L634.87 209.07L635.26 212.7L635.59 216.34L635.84 219.97L636.02 223.6L636.12 227.23L636.16 230.86L636.06 236.39L635.77 241.96L635.29 247.57L634.61 253.22L633.74 258.92L632.68 264.65L631.42 270.42L629.97 276.24L628.33 282.09L626.49 287.98L624.47 293.92L622.25 299.89L619.83 305.9L617.23 311.95L614.44 318.04L611.45 324.17L608.27 330.33L604.9 336.53L601.34 342.77L597.58 349.05L593.64 355.37L589.5 361.72L585.18 368.11L580.66 374.53L575.95 381L571.06 387.5L565.97 394.03L560.69 400.6L555.22 407.2L549.56 413.84L543.71 420.52L537.68 427.23L531.45 433.98L525.03 440.76L518.43 447.57L511.63 454.42L504.65 461.3L497.48 468.21L490.12 475.16L482.57 482.14L477.06 487.14L471.57 492.07L466.1 496.91L460.65 501.66L455.22 506.33L449.84 510.91L444.5 515.4L439.2 519.8L433.96 524.1L428.79 528.31L423.68 532.42L418.64 536.42L413.69 540.32L408.82 544.11L404.05 547.79L399.37 551.37L394.81 554.83L390.35 558.17L386.02 561.4L381.81 564.5L377.73 567.48L373.79 570.34L370 573.08L366.36 575.68L362.87 578.15L359.55 580.49L356.4 582.69L353.42 584.75L350.63 586.68L348.03 588.46L345.62 590.09L343.42 591.58L341.42 592.92L339.64 594.11L338.08 595.14L336.75 596.02L335.65 596.74L334.8 597.3L334.19 597.69L333.83 597.92L333.51 598.12L333.19 598.32L332.87 598.51L332.55 598.69L332.22 598.87L331.9 599.05L331.57 599.22L331.23 599.38L330.9 599.54L330.57 599.7L330.23 599.85L329.89 599.99L329.55 600.13L329.21 600.26L328.87 600.39L328.53 600.52L328.18 600.64L327.83 600.75L327.49 600.86L327.14 600.96L326.79 601.06L326.44 601.16L326.08 601.24L325.73 601.33L325.38 601.41L325.02 601.48L324.67 601.55L324.31 601.61L323.95 601.67L323.6 601.72L323.24 601.77L322.88 601.81L322.52 601.85L322.16 601.89L321.8 601.91L321.44 601.94L321.08 601.95L320.72 601.97L320.36 601.97L320 601.98L319.64 601.97L319.27 601.97L318.91 601.95L318.55 601.94L318.18 601.91L317.82 601.88L317.46 601.85L317.1 601.81L316.73 601.77L316.37 601.72L316.01 601.67L315.65 601.61L315.29 601.54L314.94 601.47L314.58 601.4L314.22 601.32L313.87 601.23L313.51 601.14L313.16 601.05L312.8 600.95L312.45 600.84L312.1 600.73L311.75 600.61L311.4 600.49L311.06 600.37L310.71 600.24L310.37 600.1L310.03 599.96L309.69 599.81L309.35 599.66L309.01 599.5L308.68 599.34L308.34 599.17L308.01 599L307.68 598.82L307.35 598.64L307.03 598.45L306.71 598.26L306.38 598.06L306.07 597.85L305.71 597.62L305.1 597.22L304.24 596.66L303.15 595.93L301.81 595.05L300.26 594L298.48 592.8L296.48 591.45L294.28 589.95L291.87 588.3L289.27 586.5L286.48 584.56L283.51 582.48L280.36 580.26L277.04 577.9L273.55 575.41L269.91 572.79L266.12 570.03L262.18 567.15L258.11 564.15L253.9 561.02L249.57 557.77L245.12 554.4L240.55 550.92L235.88 547.32L231.11 543.62L226.25 539.8L221.3 535.88L216.26 531.85L211.16 527.72L205.98 523.49L200.74 519.17L195.45 514.75L190.11 510.23L184.73 505.63L179.31 500.94L173.86 496.17L168.39 491.31L162.9 486.37L157.4 481.35L149.85 474.34L142.49 467.37L135.32 460.44L128.34 453.54L121.54 446.68L114.94 439.85L108.53 433.06L102.3 426.31L96.26 419.59L90.42 412.91L84.76 406.27L79.29 399.66L74.02 393.1L68.93 386.57L64.03 380.08L59.33 373.63L54.81 367.21L50.49 360.84L46.35 354.5L42.41 348.21L38.66 341.95L35.09 335.73L31.72 329.55L28.55 323.42L25.56 317.32L22.76 311.26L20.16 305.25L17.75 299.27L15.53 293.34L13.5 287.45L11.67 281.6L10.03 275.79L8.58 270.03L7.32 264.3L6.26 258.62L5.39 252.98L4.71 247.39L4.23 241.84L3.94 236.33L3.84 230.86L3.88 227.23L3.98 223.59L4.16 219.95L4.41 216.31L4.73 212.67L5.12 209.04L5.57 205.4L6.1 201.77L6.69 198.15L7.36 194.54L8.08 190.93L8.88 187.33L9.74 183.75L10.67 180.17L11.66 176.61L12.72 173.06L13.85 169.53L15.03 166.02L16.28 162.52L17.6 159.04L18.97 155.58L20.41 152.14L21.91 148.73L23.47 145.34L25.09 141.97L26.78 138.63L28.52 135.32L30.32 132.03L32.18 128.78L34.1 125.55L36.08 122.36L38.11 119.2L40.2 116.08L42.35 112.99L44.56 109.93L46.82 106.92L49.13 103.95L51.51 101.01L53.93 98.12L56.41 95.27L59.1 92.29L61.82 89.38L64.59 86.54L67.4 83.77L70.24 81.06L73.12 78.43L76.04 75.87L78.99 73.38L81.98 70.95L85 68.6L88.06 66.32L91.15 64.11L94.26 61.98L97.41 59.92L100.59 57.93L103.8 56.01L107.04 54.17L110.3 52.4L113.6 50.7L116.91 49.08L120.26 47.54L123.62 46.07L127.01 44.68L130.43 43.36L133.86 42.12L137.32 40.96L140.79 39.88L144.29 38.87L147.8 37.94L151.33 37.09L154.88 36.32L158.45 35.63L162.03 35.02L165.63 34.49L169.24 34.04L172.86 33.67L176.49 33.38L180.14 33.18L183.8 33.05L187.47 33.01L191.33 33.05L195.17 33.16L199 33.35L202.81 33.62L206.6 33.96L210.37 34.37L214.12 34.85L217.85 35.41L221.56 36.04L225.24 36.75L228.9 37.52L232.53 38.37L236.14 39.28L239.72 40.27L243.27 41.32L246.79 42.44L250.29 43.64L253.75 44.9L257.18 46.22L260.58 47.62L263.94 49.08L267.27 50.6L270.57 52.19L273.82 53.85L277.04 55.57L280.23 57.36L283.37 59.2L286.47 61.11L289.54 63.09L292.56 65.12L295.53 67.22L298.47 69.37L301.35 71.59L304.2 73.87L306.99 76.2L309.74 78.6L312.44 81.05L315.09 83.56L317.69 86.13L320.24 88.76L322.83 86.13L325.47 83.56L328.15 81.05L330.88 78.6L333.66 76.2L336.48 73.87L339.35 71.59L342.25 69.37L345.21 67.22L348.2 65.12L351.23 63.09L354.3 61.12L357.41 59.2L360.56 57.36L363.75 55.57L366.97 53.85L370.22 52.2L373.51 50.6L376.83 49.08L380.19 47.62L383.57 46.22L386.99 44.9L390.43 43.64L393.9 42.45L397.4 41.32L400.93 40.27L404.48 39.28L408.06 38.37L411.66 37.52L415.28 36.75L418.92 36.04L422.59 35.41L426.27 34.85L429.97 34.37L433.69 33.96L437.43 33.62L441.19 33.35L444.96 33.16L448.74 33.05L452.54 33.01L456.17 33.05L459.8 33.18ZM445.78 84.38L442.43 84.59L439.1 84.88L435.78 85.25L432.49 85.7L429.22 86.23L425.96 86.84L422.74 87.53L419.54 88.29L416.36 89.13L413.21 90.05L410.09 91.04L407 92.11L403.95 93.26L400.92 94.47L397.93 95.76L394.98 97.12L392.06 98.55L389.18 100.06L386.34 101.63L383.54 103.28L380.78 104.99L378.06 106.77L375.39 108.61L372.76 110.53L370.18 112.51L367.65 114.55L365.16 116.66L362.73 118.84L360.35 121.08L358.02 123.38L355.75 125.74L353.53 128.16L351.37 130.65L349.26 133.19L347.22 135.79L345.24 138.45L343.31 141.17L341.46 143.95L341.1 144.49L340.72 145.02L340.34 145.54L339.94 146.04L339.53 146.54L339.11 147.02L338.68 147.49L338.24 147.95L337.79 148.4L337.33 148.83L336.85 149.25L336.37 149.67L335.88 150.06L335.38 150.45L334.87 150.82L334.35 151.18L333.83 151.53L333.29 151.86L332.75 152.18L332.2 152.49L331.64 152.78L331.08 153.06L330.51 153.33L329.93 153.58L329.35 153.82L328.76 154.04L328.16 154.25L327.56 154.44L326.95 154.62L326.34 154.79L325.72 154.94L325.1 155.07L324.48 155.19L323.85 155.29L323.21 155.38L322.58 155.45L321.94 155.51L321.29 155.55L320.65 155.58L320 155.58L319.9 155.58L319.86 155.58L319.84 155.58L319.83 155.58L319.8 155.58L319.79 155.58L319.14 155.57L318.49 155.54L317.84 155.49L317.19 155.43L316.55 155.35L315.91 155.25L315.28 155.14L314.65 155.02L314.02 154.88L313.4 154.72L312.79 154.55L312.18 154.36L311.57 154.16L310.98 153.94L310.38 153.71L309.8 153.46L309.22 153.2L308.64 152.93L308.08 152.64L307.52 152.33L306.97 152.02L306.43 151.69L305.89 151.35L305.37 150.99L304.85 150.62L304.34 150.24L303.84 149.84L303.35 149.43L302.87 149.01L302.4 148.58L301.94 148.13L301.5 147.67L301.06 147.2L300.63 146.72L300.22 146.23L299.81 145.73L299.42 145.21L299.04 144.68L298.67 144.14L298.32 143.59L296.53 140.83L294.68 138.13L292.77 135.48L290.78 132.9L288.74 130.37L286.64 127.9L284.47 125.49L282.25 123.14L279.97 120.86L277.63 118.63L275.23 116.47L272.79 114.37L270.28 112.34L267.73 110.37L265.13 108.47L262.48 106.63L259.78 104.86L257.04 103.16L254.25 101.53L251.41 99.96L248.54 98.47L245.62 97.05L242.66 95.69L239.66 94.41L236.63 93.2L233.56 92.07L230.45 91L227.31 90.02L224.14 89.1L220.94 88.27L217.71 87.51L214.44 86.82L211.15 86.22L207.84 85.69L204.5 85.24L201.13 84.88L197.75 84.59L194.34 84.38L190.91 84.26L187.47 84.22L181.82 84.36L176.25 84.79L170.75 85.49L165.34 86.46L160.02 87.68L154.78 89.16L149.64 90.87L144.59 92.82L139.64 95L134.8 97.4L130.07 100L125.44 102.81L120.93 105.81L116.53 109L112.26 112.37L108.11 115.9L104.09 119.6L100.2 123.45L96.45 127.45L92.84 131.58L89.36 135.85L86.03 140.23L82.86 144.73L79.83 149.34L76.96 154.04L74.25 158.84L71.71 163.71L69.33 168.66L67.12 173.67L65.08 178.75L63.22 183.87L61.54 189.03L60.05 194.23L58.74 199.45L57.63 204.69L56.71 209.93L55.99 215.18L55.47 220.43L55.15 225.66L55.05 230.86L55.14 235.16L55.4 239.51L55.84 243.93L56.46 248.41L57.26 252.95L58.23 257.54L59.37 262.2L60.69 266.91L62.18 271.68L63.85 276.51L65.69 281.39L67.7 286.32L69.88 291.31L72.24 296.35L74.76 301.45L77.46 306.59L80.32 311.79L83.36 317.04L86.56 322.34L89.94 327.68L93.48 333.07L97.19 338.51L101.06 344L105.1 349.53L109.31 355.11L113.69 360.73L118.23 366.39L122.93 372.1L127.8 377.85L132.83 383.64L138.02 389.47L143.38 395.34L148.9 401.25L154.58 407.2L160.43 413.18L166.43 419.2L172.6 425.26L178.92 431.35L185.4 437.48L192.05 443.64L195.93 447.19L199.81 450.7L203.68 454.17L207.55 457.6L211.41 460.99L215.26 464.33L219.1 467.64L222.91 470.89L226.71 474.11L230.48 477.27L234.23 480.39L237.96 483.46L241.65 486.48L245.3 489.45L248.93 492.37L252.51 495.24L256.05 498.05L259.55 500.8L263 503.5L266.41 506.15L269.76 508.74L273.06 511.26L276.3 513.73L279.48 516.14L282.59 518.48L285.65 520.76L288.63 522.98L291.55 525.13L294.39 527.22L297.15 529.24L299.84 531.19L302.45 533.07L304.97 534.88L307.41 536.62L309.76 538.29L312.01 539.89L314.17 541.41L316.24 542.85L318.2 544.22L320.07 545.51L321.94 544.23L323.91 542.86L325.99 541.42L328.16 539.91L330.43 538.32L332.78 536.66L335.23 534.92L337.77 533.12L340.39 531.24L343.09 529.3L345.87 527.28L348.72 525.2L351.65 523.06L354.65 520.85L357.71 518.57L360.84 516.23L364.04 513.83L367.29 511.37L370.6 508.85L373.97 506.27L377.38 503.63L380.85 500.94L384.36 498.19L387.92 495.38L391.51 492.52L395.14 489.61L398.81 486.65L402.52 483.64L406.25 480.57L410.01 477.46L413.79 474.3L417.6 471.1L421.42 467.85L425.26 464.55L429.12 461.21L432.98 457.83L436.86 454.41L440.74 450.95L444.62 447.44L448.5 443.9L455.12 437.78L461.58 431.69L467.88 425.63L474.02 419.61L480 413.61L485.82 407.66L491.47 401.73L496.97 395.85L502.31 389.99L507.48 384.18L512.5 378.41L517.34 372.67L522.03 366.97L526.55 361.32L530.91 355.7L535.1 350.13L539.12 344.6L542.98 339.11L546.68 333.67L550.2 328.27L553.56 322.92L556.76 317.61L559.78 312.35L562.63 307.14L565.32 301.98L567.83 296.86L570.18 291.8L572.35 286.78L574.36 281.82L576.19 276.91L577.85 272.06L579.33 267.26L580.65 262.51L581.79 257.82L582.75 253.18L583.54 248.6L584.16 244.08L584.6 239.61L584.87 235.21L584.96 230.86L584.84 225.12L584.49 219.41L583.91 213.74L583.12 208.11L582.11 202.53L580.89 197L579.46 191.54L577.84 186.14L576.02 180.82L574.01 175.57L571.82 170.41L569.45 165.34L566.91 160.37L564.2 155.5L561.33 150.74L558.3 146.09L555.12 141.56L551.8 137.16L548.33 132.89L544.73 128.76L541 124.77L537.15 120.94L533.17 117.25L529.09 113.73L524.89 110.38L520.59 107.2L516.19 104.2L511.7 101.39L507.12 98.76L502.46 96.34L497.73 94.12L492.92 92.1L488.05 90.3L483.11 88.72L478.12 87.37L473.08 86.25L468 85.37L462.88 84.73L457.72 84.35L452.54 84.22L449.15 84.26L445.78 84.38Z" id="dxP1mPWgt"></path></defs><g><g><g><use xlink:href="#dxP1mPWgt" opacity="1" fill="#000000" fill-opacity="1"></use><g><use xlink:href="#dxP1mPWgt" opacity="1" fill-opacity="0" stroke="#000000" stroke-width="1" stroke-opacity="0"></use></g></g></g></g></svg>