<?xml version="1.0" encoding="UTF-8" standalone="no"?>
<!DOCTYPE svg PUBLIC "-//W3C//DTD SVG 1.1//EN" "http://www.w3.org/Graphics/SVG/1.1/DTD/svg11.dtd">
<svg version="1.1" xmlns="http://www.w3.org/2000/svg" xmlns:xlink="http://www.w3.org/1999/xlink" preserveAspectRatio="xMidYMid meet" viewBox="0 0 640 640" width="640" height="640"><defs><path d="M369.13 217.17L369.54 217.21L370.32 217.33L370.71 217.42L371.45 217.64L371.82 217.77L372.18 217.92L372.53 218.08L373.21 218.42L373.54 218.62L373.85 218.83L374.18 219.06L374.77 219.53L375.06 219.79L375.33 220.05L375.59 220.32L375.85 220.6L376.32 221.2L376.54 221.52L376.75 221.83L376.95 222.17L377.12 222.5L377.3 222.85L377.46 223.19L377.61 223.55L377.73 223.93L377.96 224.67L378.04 225.05L378.1 225.45L378.17 225.83L378.2 226.24L378.23 226.64L378.24 227.05L378.24 504.92L378.23 505.32L378.2 505.72L378.17 506.13L378.1 506.51L378.04 506.91L377.96 507.29L377.73 508.04L377.61 508.41L377.46 508.77L377.3 509.12L377.12 509.46L376.95 509.8L376.75 510.13L376.54 510.44L376.32 510.76L375.85 511.36L375.33 511.92L375.06 512.18L374.77 512.44L374.18 512.91L373.85 513.13L373.54 513.34L373.21 513.54L372.87 513.71L372.53 513.89L372.18 514.05L371.82 514.2L371.45 514.32L370.71 514.54L370.32 514.63L369.93 514.69L369.54 514.75L369.13 514.79L368.74 514.82L368.33 514.83L67.06 514.83L66.66 514.82L66.26 514.79L65.85 514.75L65.47 514.69L65.07 514.63L64.69 514.54L63.94 514.32L63.57 514.2L63.21 514.05L62.86 513.89L62.52 513.71L62.18 513.54L61.85 513.34L61.54 513.13L61.22 512.91L60.62 512.44L60.34 512.18L60.06 511.92L59.54 511.36L59.07 510.76L58.85 510.44L58.64 510.13L58.44 509.8L58.27 509.46L58.09 509.12L57.93 508.77L57.78 508.41L57.66 508.04L57.44 507.29L57.35 506.91L57.29 506.51L57.23 506.13L57.19 505.72L57.16 505.32L57.15 504.92L57.15 227.05L57.16 226.64L57.19 226.24L57.23 225.83L57.29 225.45L57.35 225.05L57.44 224.67L57.66 223.93L57.78 223.55L57.93 223.19L58.09 222.85L58.27 222.5L58.44 222.17L58.64 221.83L58.85 221.52L59.07 221.2L59.54 220.6L59.8 220.32L60.06 220.05L60.62 219.53L61.22 219.06L61.54 218.83L61.85 218.62L62.18 218.42L62.86 218.08L63.21 217.92L63.57 217.77L63.94 217.64L64.69 217.42L65.07 217.33L65.47 217.27L65.85 217.21L66.26 217.17L66.66 217.15L67.06 217.14L368.33 217.14L368.74 217.15L369.13 217.17ZM251.6 402.65L250.83 403.23L249.27 404.35L248.46 404.89L247.66 405.41L246.84 405.93L245.18 406.92L244.34 407.39L243.48 407.85L241.75 408.72L240.87 409.13L239.98 409.54L239.08 409.92L238.18 410.28L237.26 410.64L236.35 410.98L235.42 411.3L234.47 411.61L233.53 411.89L232.59 412.16L231.64 412.42L230.67 412.67L229.7 412.9L227.75 413.29L226.77 413.47L225.76 413.61L224.77 413.75L223.77 413.87L222.76 413.97L221.75 414.06L220.73 414.12L219.7 414.17L218.67 414.2L217.65 414.21L216.62 414.2L215.59 414.17L214.56 414.12L213.54 414.06L212.54 413.97L211.54 413.87L210.53 413.75L209.53 413.61L208.54 413.47L207.56 413.29L206.58 413.09L205.61 412.9L204.65 412.67L203.68 412.42L202.73 412.16L201.79 411.89L200.84 411.61L199.91 411.3L198.98 410.98L198.07 410.64L196.26 409.92L195.35 409.54L193.59 408.72L192.71 408.29L191.86 407.85L191 407.39L190.16 406.92L189.32 406.43L188.49 405.93L187.67 405.41L186.87 404.89L186.06 404.35L185.27 403.79L184.49 403.23L183.72 402.65L182.95 402.05L182.21 401.45L181.46 400.83L180.47 401.24L179.51 401.67L178.55 402.13L177.61 402.62L176.69 403.13L175.8 403.68L174.92 404.23L174.05 404.83L173.21 405.44L172.39 406.08L171.59 406.74L170.81 407.42L170.05 408.11L169.32 408.84L168.6 409.59L167.91 410.36L167.24 411.14L166.59 411.94L165.97 412.76L165.38 413.6L164.81 414.46L164.26 415.34L163.74 416.23L163.25 417.13L162.78 418.06L162.34 418.99L161.93 419.95L161.54 420.91L161.19 421.9L160.86 422.9L160.56 423.9L160.29 424.92L160.05 425.94L159.84 426.99L159.67 428.04L159.52 429.1L159.41 430.17L159.32 431.26L159.27 432.35L159.26 433.44L159.26 495.1L275.94 495.1L275.94 433.44L275.92 432.35L275.87 431.26L275.79 430.17L275.68 429.1L275.53 428.04L275.35 426.99L275.14 425.94L274.91 424.92L274.63 423.9L274.34 422.9L274 421.9L273.66 420.91L273.27 419.95L272.86 418.99L272.42 418.06L271.95 417.13L271.46 416.23L270.94 415.34L270.4 414.46L269.83 413.6L269.23 412.76L268.61 411.94L267.97 411.14L267.31 410.36L266.62 409.59L265.91 408.84L265.17 408.11L264.42 407.42L263.64 406.74L262.85 406.08L262.03 405.44L261.19 404.83L260.33 404.23L259.46 403.68L258.56 403.13L257.66 402.62L256.72 402.13L255.77 401.67L254.81 401.24L253.83 400.83L253.1 401.45L251.6 402.65ZM76.98 495L139.53 495L139.53 433.34L139.56 431.79L139.62 430.26L139.73 428.73L139.88 427.21L140.06 425.71L140.3 424.21L140.57 422.73L140.88 421.27L141.23 419.82L141.61 418.39L142.05 416.96L142.5 415.56L143.01 414.17L143.55 412.8L144.13 411.45L144.73 410.11L145.38 408.79L146.06 407.49L146.78 406.22L147.52 404.97L148.3 403.73L149.12 402.51L149.96 401.32L150.83 400.16L151.75 399.02L152.68 397.89L153.64 396.8L154.65 395.73L155.66 394.68L156.72 393.66L157.8 392.67L158.91 391.72L160.04 390.78L161.2 389.87L162.38 388.99L163.59 388.15L164.83 387.33L166.09 386.54L167.37 385.78L168.68 385.06L168.34 384.47L168.02 383.86L167.4 382.65L166.8 381.41L166.52 380.79L165.97 379.53L165.45 378.25L164.97 376.95L164.75 376.3L164.52 375.65L164.3 374.98L164.1 374.32L163.9 373.65L163.72 372.97L163.53 372.3L163.36 371.62L163.04 370.26L162.89 369.58L162.75 368.88L162.5 367.49L162.39 366.79L162.19 365.37L162.11 364.67L161.96 363.26L161.9 362.54L161.85 361.82L161.77 360.38L161.75 359.65L161.74 358.93L161.74 358.2L161.79 355.89L161.92 353.6L162.16 351.35L162.47 349.12L162.88 346.91L163.36 344.74L163.94 342.6L164.59 340.49L165.33 338.44L166.13 336.4L167.03 334.41L167.99 332.46L169.02 330.55L170.12 328.7L171.3 326.89L172.54 325.13L173.85 323.42L175.22 321.76L176.66 320.15L178.14 318.6L179.69 317.11L181.3 315.67L182.96 314.31L184.67 313L186.43 311.76L188.24 310.58L190.1 309.48L192.01 308.45L193.95 307.48L195.95 306.59L197.98 305.78L200.04 305.04L202.14 304.4L204.29 303.81L206.46 303.33L208.66 302.92L210.89 302.61L213.15 302.38L215.44 302.24L217.75 302.19L220.05 302.24L222.34 302.38L224.6 302.61L226.83 302.92L229.03 303.33L231.2 303.83L233.35 304.4L235.45 305.05L237.51 305.8L239.54 306.6L241.54 307.49L243.48 308.46L245.39 309.5L247.25 310.6L249.06 311.78L250.82 313.02L252.53 314.33L254.19 315.71L255.8 317.15L257.35 318.63L258.84 320.18L260.27 321.79L261.64 323.45L262.95 325.16L264.19 326.92L265.37 328.75L266.47 330.6L267.5 332.5L268.46 334.46L269.36 336.44L270.16 338.47L270.9 340.54L271.55 342.64L272.13 344.77L272.61 346.94L273.02 349.14L273.33 351.37L273.57 353.61L273.71 355.89L273.75 358.2L273.75 358.93L273.73 359.65L273.72 360.38L273.68 361.1L273.63 361.82L273.58 362.52L273.52 363.24L273.46 363.95L273.28 365.36L273.09 366.77L272.71 368.86L272.57 369.54L272.42 370.23L272.26 370.91L272.09 371.58L271.92 372.26L271.55 373.6L271.35 374.27L271.14 374.94L270.93 375.6L270.71 376.25L270.47 376.91L270.24 377.56L269.74 378.84L269.48 379.49L268.93 380.75L268.65 381.38L268.36 382L267.77 383.24L267.46 383.85L266.82 385.06L268.12 385.78L269.41 386.53L270.66 387.31L271.9 388.11L273.1 388.96L274.29 389.84L275.44 390.74L276.58 391.67L277.68 392.62L278.76 393.61L279.8 394.63L280.83 395.67L281.82 396.74L282.79 397.83L283.72 398.94L284.62 400.08L285.49 401.26L286.33 402.45L287.14 403.65L287.92 404.89L288.66 406.14L289.37 407.42L290.05 408.72L290.69 410.03L291.3 411.37L291.87 412.73L292.4 414.1L292.9 415.5L293.37 416.9L293.79 418.32L294.18 419.76L294.52 421.22L294.83 422.7L295.11 424.17L295.33 425.67L295.53 427.18L295.68 428.71L295.77 430.24L295.84 431.78L295.86 433.34L295.86 495L358.51 495L358.51 236.96L76.98 236.96L76.98 495ZM214.36 322.17L212.75 322.35L211.15 322.6L209.59 322.92L208.04 323.32L206.53 323.76L205.04 324.28L203.58 324.87L202.16 325.51L200.77 326.2L199.41 326.97L198.09 327.78L196.8 328.66L195.56 329.58L194.36 330.54L193.2 331.57L192.08 332.64L191.02 333.75L189.99 334.92L189.02 336.12L188.1 337.36L187.23 338.65L186.42 339.96L185.65 341.32L184.96 342.71L184.31 344.14L183.73 345.6L183.21 347.08L182.76 348.6L182.37 350.15L182.05 351.71L181.8 353.31L181.61 354.92L181.5 356.55L181.46 358.2L181.5 359.85L181.61 361.48L181.8 363.09L182.05 364.69L182.37 366.25L182.76 367.8L183.21 369.31L183.73 370.8L184.31 372.26L184.96 373.69L185.65 375.08L186.42 376.44L187.23 377.75L188.1 379.04L189.02 380.28L189.99 381.48L191.02 382.65L192.08 383.76L193.2 384.83L194.36 385.86L195.56 386.82L196.8 387.74L198.09 388.62L199.41 389.43L200.77 390.19L202.16 390.89L203.58 391.53L205.04 392.12L206.53 392.64L208.04 393.08L209.59 393.48L211.15 393.8L212.75 394.05L214.36 394.23L216 394.35L217.65 394.38L219.29 394.35L220.93 394.23L222.54 394.05L224.14 393.8L225.7 393.48L227.25 393.08L228.76 392.64L230.25 392.12L231.71 391.53L233.14 390.89L234.52 390.19L235.89 389.43L237.2 388.62L238.49 387.74L239.73 386.82L240.93 385.86L242.09 384.83L243.21 383.76L244.28 382.65L245.3 381.48L246.27 380.28L247.19 379.04L248.07 377.75L248.87 376.44L249.64 375.08L250.34 373.69L250.98 372.26L251.56 370.8L252.08 369.31L252.53 367.8L252.92 366.25L253.25 364.69L253.49 363.09L253.68 361.48L253.79 359.85L253.83 358.2L253.79 356.55L253.68 354.92L253.49 353.31L253.25 351.71L252.92 350.15L252.53 348.6L252.08 347.08L251.56 345.6L250.98 344.14L250.34 342.71L249.64 341.32L248.87 339.96L248.07 338.65L247.19 337.36L246.27 336.12L245.3 334.92L244.28 333.75L243.21 332.64L242.09 331.57L240.93 330.54L239.73 329.58L238.49 328.66L237.2 327.78L235.89 326.97L234.52 326.2L233.14 325.51L231.71 324.87L230.25 324.28L228.76 323.76L227.25 323.32L225.7 322.92L224.14 322.6L222.54 322.35L220.93 322.17L219.29 322.05L217.65 322.02L216 322.05L214.36 322.17Z" id="c1Go9yoxWs"></path><path d="M369.13 217.17L369.54 217.21L370.32 217.33L370.71 217.42L371.45 217.64L371.82 217.77L372.18 217.92L372.53 218.08L373.21 218.42L373.54 218.62L373.85 218.83L374.18 219.06L374.77 219.53L375.06 219.79L375.33 220.05L375.59 220.32L375.85 220.6L376.32 221.2L376.54 221.52L376.75 221.83L376.95 222.17L377.12 222.5L377.3 222.85L377.46 223.19L377.61 223.55L377.73 223.93L377.96 224.67L378.04 225.05L378.1 225.45L378.17 225.83L378.2 226.24L378.23 226.64L378.24 227.05L378.24 504.92L378.23 505.32L378.2 505.72L378.17 506.13L378.1 506.51L378.04 506.91L377.96 507.29L377.73 508.04L377.61 508.41L377.46 508.77L377.3 509.12L377.12 509.46L376.95 509.8L376.75 510.13L376.54 510.44L376.32 510.76L375.85 511.36L375.33 511.92L375.06 512.18L374.77 512.44L374.18 512.91L373.85 513.13L373.54 513.34L373.21 513.54L372.87 513.71L372.53 513.89L372.18 514.05L371.82 514.2L371.45 514.32L370.71 514.54L370.32 514.63L369.93 514.69L369.54 514.75L369.13 514.79L368.74 514.82L368.33 514.83L67.06 514.83L66.66 514.82L66.26 514.79L65.85 514.75L65.47 514.69L65.07 514.63L64.69 514.54L63.94 514.32L63.57 514.2L63.21 514.05L62.86 513.89L62.52 513.71L62.18 513.54L61.85 513.34L61.54 513.13L61.22 512.91L60.62 512.44L60.34 512.18L60.06 511.92L59.54 511.36L59.07 510.76L58.85 510.44L58.64 510.13L58.44 509.8L58.27 509.46L58.09 509.12L57.93 508.77L57.78 508.41L57.66 508.04L57.44 507.29L57.35 506.91L57.29 506.51L57.23 506.13L57.19 505.72L57.16 505.32L57.15 504.92L57.15 227.05L57.16 226.64L57.19 226.24L57.23 225.83L57.29 225.45L57.35 225.05L57.44 224.67L57.66 223.93L57.78 223.55L57.93 223.19L58.09 222.85L58.27 222.5L58.44 222.17L58.64 221.83L58.85 221.52L59.07 221.2L59.54 220.6L59.8 220.32L60.06 220.05L60.62 219.53L61.22 219.06L61.54 218.83L61.85 218.62L62.18 218.42L62.86 218.08L63.21 217.92L63.57 217.77L63.94 217.64L64.69 217.42L65.07 217.33L65.47 217.27L65.85 217.21L66.26 217.17L66.66 217.15L67.06 217.14L368.33 217.14L368.74 217.15L369.13 217.17ZM251.6 402.65L250.83 403.23L249.27 404.35L248.46 404.89L247.66 405.41L246.84 405.93L245.18 406.92L244.34 407.39L243.48 407.85L241.75 408.72L240.87 409.13L239.98 409.54L239.08 409.92L238.18 410.28L237.26 410.64L236.35 410.98L235.42 411.3L234.47 411.61L233.53 411.89L232.59 412.16L231.64 412.42L230.67 412.67L229.7 412.9L227.75 413.29L226.77 413.47L225.76 413.61L224.77 413.75L223.77 413.87L222.76 413.97L221.75 414.06L220.73 414.12L219.7 414.17L218.67 414.2L217.65 414.21L216.62 414.2L215.59 414.17L214.56 414.12L213.54 414.06L212.54 413.97L211.54 413.87L210.53 413.75L209.53 413.61L208.54 413.47L207.56 413.29L206.58 413.09L205.61 412.9L204.65 412.67L203.68 412.42L202.73 412.16L201.79 411.89L200.84 411.61L199.91 411.3L198.98 410.98L198.07 410.64L196.26 409.92L195.35 409.54L193.59 408.72L192.71 408.29L191.86 407.85L191 407.39L190.16 406.92L189.32 406.43L188.49 405.93L187.67 405.41L186.87 404.89L186.06 404.35L185.27 403.79L184.49 403.23L183.72 402.65L182.95 402.05L182.21 401.45L181.46 400.83L180.47 401.24L179.51 401.67L178.55 402.13L177.61 402.62L176.69 403.13L175.8 403.68L174.92 404.23L174.05 404.83L173.21 405.44L172.39 406.08L171.59 406.74L170.81 407.42L170.05 408.11L169.32 408.84L168.6 409.59L167.91 410.36L167.24 411.14L166.59 411.94L165.97 412.76L165.38 413.6L164.81 414.46L164.26 415.34L163.74 416.23L163.25 417.13L162.78 418.06L162.34 418.99L161.93 419.95L161.54 420.91L161.19 421.9L160.86 422.9L160.56 423.9L160.29 424.92L160.05 425.94L159.84 426.99L159.67 428.04L159.52 429.1L159.41 430.17L159.32 431.26L159.27 432.35L159.26 433.44L159.26 495.1L275.94 495.1L275.94 433.44L275.92 432.35L275.87 431.26L275.79 430.17L275.68 429.1L275.53 428.04L275.35 426.99L275.14 425.94L274.91 424.92L274.63 423.9L274.34 422.9L274 421.9L273.66 420.91L273.27 419.95L272.86 418.99L272.42 418.06L271.95 417.13L271.46 416.23L270.94 415.34L270.4 414.46L269.83 413.6L269.23 412.76L268.61 411.94L267.97 411.14L267.31 410.36L266.62 409.59L265.91 408.84L265.17 408.11L264.42 407.42L263.64 406.74L262.85 406.08L262.03 405.44L261.19 404.83L260.33 404.23L259.46 403.68L258.56 403.13L257.66 402.62L256.72 402.13L255.77 401.67L254.81 401.24L253.83 400.83L253.1 401.45L251.6 402.65ZM76.98 495L139.53 495L139.53 433.34L139.56 431.79L139.62 430.26L139.73 428.73L139.88 427.21L140.06 425.71L140.3 424.21L140.57 422.73L140.88 421.27L141.23 419.82L141.61 418.39L142.05 416.96L142.5 415.56L143.01 414.17L143.55 412.8L144.13 411.45L144.73 410.11L145.38 408.79L146.06 407.49L146.78 406.22L147.52 404.97L148.3 403.73L149.12 402.51L149.96 401.32L150.83 400.16L151.75 399.02L152.68 397.89L153.64 396.8L154.65 395.73L155.66 394.68L156.72 393.66L157.8 392.67L158.91 391.72L160.04 390.78L161.2 389.87L162.38 388.99L163.59 388.15L164.83 387.33L166.09 386.54L167.37 385.78L168.68 385.06L168.34 384.47L168.02 383.86L167.4 382.65L166.8 381.41L166.52 380.79L165.97 379.53L165.45 378.25L164.97 376.95L164.75 376.3L164.52 375.65L164.3 374.98L164.1 374.32L163.9 373.65L163.72 372.97L163.53 372.3L163.36 371.62L163.04 370.26L162.89 369.58L162.75 368.88L162.5 367.49L162.39 366.79L162.19 365.37L162.11 364.67L161.96 363.26L161.9 362.54L161.85 361.82L161.77 360.38L161.75 359.65L161.74 358.93L161.74 358.2L161.79 355.89L161.92 353.6L162.16 351.35L162.47 349.12L162.88 346.91L163.36 344.74L163.94 342.6L164.59 340.49L165.33 338.44L166.13 336.4L167.03 334.41L167.99 332.46L169.02 330.55L170.12 328.7L171.3 326.89L172.54 325.13L173.85 323.42L175.22 321.76L176.66 320.15L178.14 318.6L179.69 317.11L181.3 315.67L182.96 314.31L184.67 313L186.43 311.76L188.24 310.58L190.1 309.48L192.01 308.45L193.95 307.48L195.95 306.59L197.98 305.78L200.04 305.04L202.14 304.4L204.29 303.81L206.46 303.33L208.66 302.92L210.89 302.61L213.15 302.38L215.44 302.24L217.75 302.19L220.05 302.24L222.34 302.38L224.6 302.61L226.83 302.92L229.03 303.33L231.2 303.83L233.35 304.4L235.45 305.05L237.51 305.8L239.54 306.6L241.54 307.49L243.48 308.46L245.39 309.5L247.25 310.6L249.06 311.78L250.82 313.02L252.53 314.33L254.19 315.71L255.8 317.15L257.35 318.63L258.84 320.18L260.27 321.79L261.64 323.45L262.95 325.16L264.19 326.92L265.37 328.75L266.47 330.6L267.5 332.5L268.46 334.46L269.36 336.44L270.16 338.47L270.9 340.54L271.55 342.64L272.13 344.77L272.61 346.94L273.02 349.14L273.33 351.37L273.57 353.61L273.71 355.89L273.75 358.2L273.75 358.93L273.73 359.65L273.72 360.38L273.68 361.1L273.63 361.82L273.58 362.52L273.52 363.24L273.46 363.95L273.28 365.36L273.09 366.77L272.71 368.86L272.57 369.54L272.42 370.23L272.26 370.91L272.09 371.58L271.92 372.26L271.55 373.6L271.35 374.27L271.14 374.94L270.93 375.6L270.71 376.25L270.47 376.91L270.24 377.56L269.74 378.84L269.48 379.49L268.93 380.75L268.65 381.38L268.36 382L267.77 383.24L267.46 383.85L266.82 385.06L268.12 385.78L269.41 386.53L270.66 387.31L271.9 388.11L273.1 388.96L274.29 389.84L275.44 390.74L276.58 391.67L277.68 392.62L278.76 393.61L279.8 394.63L280.83 395.67L281.82 396.74L282.79 397.83L283.72 398.94L284.62 400.08L285.49 401.26L286.33 402.45L287.14 403.65L287.92 404.89L288.66 406.14L289.37 407.42L290.05 408.72L290.69 410.03L291.3 411.37L291.87 412.73L292.4 414.1L292.9 415.5L293.37 416.9L293.79 418.32L294.18 419.76L294.52 421.22L294.83 422.7L295.11 424.17L295.33 425.67L295.53 427.18L295.68 428.71L295.77 430.24L295.84 431.78L295.86 433.34L295.86 495L358.51 495L358.51 236.96L76.98 236.96L76.98 495ZM214.36 322.17L212.75 322.35L211.15 322.6L209.59 322.92L208.04 323.32L206.53 323.76L205.04 324.28L203.58 324.87L202.16 325.51L200.77 326.2L199.41 326.97L198.09 327.78L196.8 328.66L195.56 329.58L194.36 330.54L193.2 331.57L192.08 332.64L191.02 333.75L189.99 334.92L189.02 336.12L188.1 337.36L187.23 338.65L186.42 339.96L185.65 341.32L184.96 342.71L184.31 344.14L183.73 345.6L183.21 347.08L182.76 348.6L182.37 350.15L182.05 351.71L181.8 353.31L181.61 354.92L181.5 356.55L181.46 358.2L181.5 359.85L181.61 361.48L181.8 363.09L182.05 364.69L182.37 366.25L182.76 367.8L183.21 369.31L183.73 370.8L184.31 372.26L184.96 373.69L185.65 375.08L186.42 376.44L187.23 377.75L188.1 379.04L189.02 380.28L189.99 381.48L191.02 382.65L192.08 383.76L193.2 384.83L194.36 385.86L195.56 386.82L196.8 387.74L198.09 388.62L199.41 389.43L200.77 390.19L202.16 390.89L203.58 391.53L205.04 392.12L206.53 392.64L208.04 393.08L209.59 393.48L211.15 393.8L212.75 394.05L214.36 394.23L216 394.35L217.65 394.38L219.29 394.35L220.93 394.23L222.54 394.05L224.14 393.8L225.7 393.48L227.25 393.08L228.76 392.64L230.25 392.12L231.71 391.53L233.14 390.89L234.52 390.19L235.89 389.43L237.2 388.62L238.49 387.74L239.73 386.82L240.93 385.86L242.09 384.83L243.21 383.76L244.28 382.65L245.3 381.48L246.27 380.28L247.19 379.04L248.07 377.75L248.87 376.44L249.64 375.08L250.34 373.69L250.98 372.26L251.56 370.8L252.08 369.31L252.53 367.8L252.92 366.25L253.25 364.69L253.49 363.09L253.68 361.48L253.79 359.85L253.83 358.2L253.79 356.55L253.68 354.92L253.49 353.31L253.25 351.71L252.92 350.15L252.53 348.6L252.08 347.08L251.56 345.6L250.98 344.14L250.34 342.71L249.64 341.32L248.87 339.96L248.07 338.65L247.19 337.36L246.27 336.12L245.3 334.92L244.28 333.75L243.21 332.64L242.09 331.57L240.93 330.54L239.73 329.58L238.49 328.66L237.2 327.78L235.89 326.97L234.52 326.2L233.14 325.51L231.71 324.87L230.25 324.28L228.76 323.76L227.25 323.32L225.7 322.92L224.14 322.6L222.54 322.35L220.93 322.17L219.29 322.05L217.65 322.02L216 322.05L214.36 322.17Z" id="cXeITypnB"></path><path d="M369.13 217.17L369.54 217.21L370.32 217.33L370.71 217.42L371.45 217.64L371.82 217.77L372.18 217.92L372.53 218.08L373.21 218.42L373.54 218.62L373.85 218.83L374.18 219.06L374.77 219.53L375.06 219.79L375.33 220.05L375.59 220.32L375.85 220.6L376.32 221.2L376.54 221.52L376.75 221.83L376.95 222.17L377.12 222.5L377.3 222.85L377.46 223.19L377.61 223.55L377.73 223.93L377.96 224.67L378.04 225.05L378.1 225.45L378.17 225.83L378.2 226.24L378.23 226.64L378.24 227.05L378.24 504.92L378.23 505.32L378.2 505.72L378.17 506.13L378.1 506.51L378.04 506.91L377.96 507.29L377.73 508.04L377.61 508.41L377.46 508.77L377.3 509.12L377.12 509.46L376.95 509.8L376.75 510.13L376.54 510.44L376.32 510.76L375.85 511.36L375.33 511.92L375.06 512.18L374.77 512.44L374.18 512.91L373.85 513.13L373.54 513.34L373.21 513.54L372.87 513.71L372.53 513.89L372.18 514.05L371.82 514.2L371.45 514.32L370.71 514.54L370.32 514.63L369.93 514.69L369.54 514.75L369.13 514.79L368.74 514.82L368.33 514.83L67.06 514.83L66.66 514.82L66.26 514.79L65.85 514.75L65.47 514.69L65.07 514.63L64.69 514.54L63.94 514.32L63.57 514.2L63.21 514.05L62.86 513.89L62.52 513.71L62.18 513.54L61.85 513.34L61.54 513.13L61.22 512.91L60.62 512.44L60.34 512.18L60.06 511.92L59.54 511.36L59.07 510.76L58.85 510.44L58.64 510.13L58.44 509.8L58.27 509.46L58.09 509.12L57.93 508.77L57.78 508.41L57.66 508.04L57.44 507.29L57.35 506.91L57.29 506.51L57.23 506.13L57.19 505.72L57.16 505.32L57.15 504.92L57.15 227.05L57.16 226.64L57.19 226.24L57.23 225.83L57.29 225.45L57.35 225.05L57.44 224.67L57.66 223.93L57.78 223.55L57.93 223.19L58.09 222.85L58.27 222.5L58.44 222.17L58.64 221.83L58.85 221.52L59.07 221.2L59.54 220.6L59.8 220.32L60.06 220.05L60.62 219.53L61.22 219.06L61.54 218.83L61.85 218.62L62.18 218.42L62.86 218.08L63.21 217.92L63.57 217.77L63.94 217.64L64.69 217.42L65.07 217.33L65.47 217.27L65.85 217.21L66.26 217.17L66.66 217.15L67.06 217.14L368.33 217.14L368.74 217.15L369.13 217.17ZM251.6 402.65L250.83 403.23L249.27 404.35L248.46 404.89L247.66 405.41L246.84 405.93L245.18 406.92L244.34 407.39L243.48 407.85L241.75 408.72L240.87 409.13L239.98 409.54L239.08 409.92L238.18 410.28L237.26 410.64L236.35 410.98L235.42 411.3L234.47 411.61L233.53 411.89L232.59 412.16L231.64 412.42L230.67 412.67L229.7 412.9L227.75 413.29L226.77 413.47L225.76 413.61L224.77 413.75L223.77 413.87L222.76 413.97L221.75 414.06L220.73 414.12L219.7 414.17L218.67 414.2L217.65 414.21L216.62 414.2L215.59 414.17L214.56 414.12L213.54 414.06L212.54 413.97L211.54 413.87L210.53 413.75L209.53 413.61L208.54 413.47L207.56 413.29L206.58 413.09L205.61 412.9L204.65 412.67L203.68 412.42L202.73 412.16L201.79 411.89L200.84 411.61L199.91 411.3L198.98 410.98L198.07 410.64L196.26 409.92L195.35 409.54L193.59 408.72L192.71 408.29L191.86 407.85L191 407.39L190.16 406.92L189.32 406.43L188.49 405.93L187.67 405.41L186.87 404.89L186.06 404.35L185.27 403.79L184.49 403.23L183.72 402.65L182.95 402.05L182.21 401.45L181.46 400.83L180.47 401.24L179.51 401.67L178.55 402.13L177.61 402.62L176.69 403.13L175.8 403.68L174.92 404.23L174.05 404.83L173.21 405.44L172.39 406.08L171.59 406.74L170.81 407.42L170.05 408.11L169.32 408.84L168.6 409.59L167.91 410.36L167.24 411.14L166.59 411.94L165.97 412.76L165.38 413.6L164.81 414.46L164.26 415.34L163.74 416.23L163.25 417.13L162.78 418.06L162.34 418.99L161.93 419.95L161.54 420.91L161.19 421.9L160.86 422.9L160.56 423.9L160.29 424.92L160.05 425.94L159.84 426.99L159.67 428.04L159.52 429.1L159.41 430.17L159.32 431.26L159.27 432.35L159.26 433.44L159.26 495.1L275.94 495.1L275.94 433.44L275.92 432.35L275.87 431.26L275.79 430.17L275.68 429.1L275.53 428.04L275.35 426.99L275.14 425.94L274.91 424.92L274.63 423.9L274.34 422.9L274 421.9L273.66 420.91L273.27 419.95L272.86 418.99L272.42 418.06L271.95 417.13L271.46 416.23L270.94 415.34L270.4 414.46L269.83 413.6L269.23 412.76L268.61 411.94L267.97 411.14L267.31 410.36L266.62 409.59L265.91 408.84L265.17 408.11L264.42 407.42L263.64 406.74L262.85 406.08L262.03 405.44L261.19 404.83L260.33 404.23L259.46 403.68L258.56 403.13L257.66 402.62L256.72 402.13L255.77 401.67L254.81 401.24L253.83 400.83L253.1 401.45L251.6 402.65ZM76.98 495L139.53 495L139.53 433.34L139.56 431.79L139.62 430.26L139.73 428.73L139.88 427.21L140.06 425.71L140.3 424.21L140.57 422.73L140.88 421.27L141.23 419.82L141.61 418.39L142.05 416.96L142.5 415.56L143.01 414.17L143.55 412.8L144.13 411.45L144.73 410.11L145.38 408.79L146.06 407.49L146.78 406.22L147.52 404.97L148.3 403.73L149.12 402.51L149.96 401.32L150.83 400.16L151.75 399.02L152.68 397.89L153.64 396.8L154.65 395.73L155.66 394.68L156.72 393.66L157.8 392.67L158.91 391.72L160.04 390.78L161.2 389.87L162.38 388.99L163.59 388.15L164.83 387.33L166.09 386.54L167.37 385.78L168.68 385.06L168.34 384.47L168.02 383.86L167.4 382.65L166.8 381.41L166.52 380.79L165.97 379.53L165.45 378.25L164.97 376.95L164.75 376.3L164.52 375.65L164.3 374.98L164.1 374.32L163.9 373.65L163.72 372.97L163.53 372.3L163.36 371.62L163.04 370.26L162.89 369.58L162.75 368.88L162.5 367.49L162.39 366.79L162.19 365.37L162.11 364.67L161.96 363.26L161.9 362.54L161.85 361.82L161.77 360.38L161.75 359.65L161.74 358.93L161.74 358.2L161.79 355.89L161.92 353.6L162.16 351.35L162.47 349.12L162.88 346.91L163.36 344.74L163.94 342.6L164.59 340.49L165.33 338.44L166.13 336.4L167.03 334.41L167.99 332.46L169.02 330.55L170.12 328.7L171.3 326.89L172.54 325.13L173.85 323.42L175.22 321.76L176.66 320.15L178.14 318.6L179.69 317.11L181.3 315.67L182.96 314.31L184.67 313L186.43 311.76L188.24 310.58L190.1 309.48L192.01 308.45L193.95 307.48L195.95 306.59L197.98 305.78L200.04 305.04L202.14 304.4L204.29 303.81L206.46 303.33L208.66 302.92L210.89 302.61L213.15 302.38L215.44 302.24L217.75 302.19L220.05 302.24L222.34 302.38L224.6 302.61L226.83 302.92L229.03 303.33L231.2 303.83L233.35 304.4L235.45 305.05L237.51 305.8L239.54 306.6L241.54 307.49L243.48 308.46L245.39 309.5L247.25 310.6L249.06 311.78L250.82 313.02L252.53 314.33L254.19 315.71L255.8 317.15L257.35 318.63L258.84 320.18L260.27 321.79L261.64 323.45L262.95 325.16L264.19 326.92L265.37 328.75L266.47 330.6L267.5 332.5L268.46 334.46L269.36 336.44L270.16 338.47L270.9 340.54L271.55 342.64L272.13 344.77L272.61 346.94L273.02 349.14L273.33 351.37L273.57 353.61L273.71 355.89L273.75 358.2L273.75 358.93L273.73 359.65L273.72 360.38L273.68 361.1L273.63 361.82L273.58 362.52L273.52 363.24L273.46 363.95L273.28 365.36L273.09 366.77L272.71 368.86L272.57 369.54L272.42 370.23L272.26 370.91L272.09 371.58L271.92 372.26L271.55 373.6L271.35 374.27L271.14 374.94L270.93 375.6L270.71 376.25L270.47 376.91L270.24 377.56L269.74 378.84L269.48 379.49L268.93 380.75L268.65 381.38L268.36 382L267.77 383.24L267.46 383.85L266.82 385.06L268.12 385.78L269.41 386.53L270.66 387.31L271.9 388.11L273.1 388.96L274.29 389.84L275.44 390.74L276.58 391.67L277.68 392.62L278.76 393.61L279.8 394.63L280.83 395.67L281.82 396.74L282.79 397.83L283.72 398.94L284.62 400.08L285.49 401.26L286.33 402.45L287.14 403.65L287.92 404.89L288.66 406.14L289.37 407.42L290.05 408.72L290.69 410.03L291.3 411.37L291.87 412.73L292.4 414.1L292.9 415.5L293.37 416.9L293.79 418.32L294.18 419.76L294.52 421.22L294.83 422.7L295.11 424.17L295.33 425.67L295.53 427.18L295.68 428.71L295.77 430.24L295.84 431.78L295.86 433.34L295.86 495L358.51 495L358.51 236.96L76.98 236.96L76.98 495ZM214.36 322.17L212.75 322.35L211.15 322.6L209.59 322.92L208.04 323.32L206.53 323.76L205.04 324.28L203.58 324.87L202.16 325.51L200.77 326.2L199.41 326.97L198.09 327.78L196.8 328.66L195.56 329.58L194.36 330.54L193.2 331.57L192.08 332.64L191.02 333.75L189.99 334.92L189.02 336.12L188.1 337.36L187.23 338.65L186.42 339.96L185.65 341.32L184.96 342.71L184.31 344.14L183.73 345.6L183.21 347.08L182.76 348.6L182.37 350.15L182.05 351.71L181.8 353.31L181.61 354.92L181.5 356.55L181.46 358.2L181.5 359.85L181.61 361.48L181.8 363.09L182.05 364.69L182.37 366.25L182.76 367.8L183.21 369.31L183.73 370.8L184.31 372.26L184.96 373.69L185.65 375.08L186.42 376.44L187.23 377.75L188.1 379.04L189.02 380.28L189.99 381.48L191.02 382.65L192.08 383.76L193.2 384.83L194.36 385.86L195.56 386.82L196.8 387.74L198.09 388.62L199.41 389.43L200.77 390.19L202.16 390.89L203.58 391.53L205.04 392.12L206.53 392.64L208.04 393.08L209.59 393.48L211.15 393.8L212.75 394.05L214.36 394.23L216 394.35L217.65 394.38L219.29 394.35L220.93 394.23L222.54 394.05L224.14 393.8L225.7 393.48L227.25 393.08L228.76 392.64L230.25 392.12L231.71 391.53L233.14 390.89L234.52 390.19L235.89 389.43L237.2 388.62L238.49 387.74L239.73 386.82L240.93 385.86L242.09 384.83L243.21 383.76L244.28 382.65L245.3 381.48L246.27 380.28L247.19 379.04L248.07 377.75L248.87 376.44L249.64 375.08L250.34 373.69L250.98 372.26L251.56 370.8L252.08 369.31L252.53 367.8L252.92 366.25L253.25 364.69L253.49 363.09L253.68 361.48L253.79 359.85L253.83 358.2L253.79 356.55L253.68 354.92L253.49 353.31L253.25 351.71L252.92 350.15L252.53 348.6L252.08 347.08L251.56 345.6L250.98 344.14L250.34 342.71L249.64 341.32L248.87 339.96L248.07 338.65L247.19 337.36L246.27 336.12L245.3 334.92L244.28 333.75L243.21 332.64L242.09 331.57L240.93 330.54L239.73 329.58L238.49 328.66L237.2 327.78L235.89 326.97L234.52 326.2L233.14 325.51L231.71 324.87L230.25 324.28L228.76 323.76L227.25 323.32L225.7 322.92L224.14 322.6L222.54 322.35L220.93 322.17L219.29 322.05L217.65 322.02L216 322.05L214.36 322.17Z" id="a1bBMY7rst"></path><path d="M369.13 217.17L369.54 217.21L370.32 217.33L370.71 217.42L371.45 217.64L371.82 217.77L372.18 217.92L372.53 218.08L373.21 218.42L373.54 218.62L373.85 218.83L374.18 219.06L374.77 219.53L375.06 219.79L375.33 220.05L375.59 220.32L375.85 220.6L376.32 221.2L376.54 221.52L376.75 221.83L376.95 222.17L377.12 222.5L377.3 222.85L377.46 223.19L377.61 223.55L377.73 223.93L377.96 224.67L378.04 225.05L378.1 225.45L378.17 225.83L378.2 226.24L378.23 226.64L378.24 227.05L378.24 504.92L378.23 505.32L378.2 505.72L378.17 506.13L378.1 506.51L378.04 506.91L377.96 507.29L377.73 508.04L377.61 508.41L377.46 508.77L377.3 509.12L377.12 509.46L376.95 509.8L376.75 510.13L376.54 510.44L376.32 510.76L375.85 511.36L375.33 511.92L375.06 512.18L374.77 512.44L374.18 512.91L373.85 513.13L373.54 513.34L373.21 513.54L372.87 513.71L372.53 513.89L372.18 514.05L371.82 514.2L371.45 514.32L370.71 514.54L370.32 514.63L369.93 514.69L369.54 514.75L369.13 514.79L368.74 514.82L368.33 514.83L67.06 514.83L66.66 514.82L66.26 514.79L65.85 514.75L65.47 514.69L65.07 514.63L64.69 514.54L63.94 514.32L63.57 514.2L63.21 514.05L62.86 513.89L62.52 513.71L62.18 513.54L61.85 513.34L61.54 513.13L61.22 512.91L60.62 512.44L60.34 512.18L60.06 511.92L59.54 511.36L59.07 510.76L58.85 510.44L58.64 510.13L58.44 509.8L58.27 509.46L58.09 509.12L57.93 508.77L57.78 508.41L57.66 508.04L57.44 507.29L57.35 506.91L57.29 506.51L57.23 506.13L57.19 505.72L57.16 505.32L57.15 504.92L57.15 227.05L57.16 226.64L57.19 226.24L57.23 225.83L57.29 225.45L57.35 225.05L57.44 224.67L57.66 223.93L57.78 223.55L57.93 223.19L58.09 222.85L58.27 222.5L58.44 222.17L58.64 221.83L58.85 221.52L59.07 221.2L59.54 220.6L59.8 220.32L60.06 220.05L60.62 219.53L61.22 219.06L61.54 218.83L61.85 218.62L62.18 218.42L62.86 218.08L63.21 217.92L63.57 217.77L63.94 217.64L64.69 217.42L65.07 217.33L65.47 217.27L65.85 217.21L66.26 217.17L66.66 217.15L67.06 217.14L368.33 217.14L368.74 217.15L369.13 217.17ZM251.6 402.65L250.83 403.23L249.27 404.35L248.46 404.89L247.66 405.41L246.84 405.93L245.18 406.92L244.34 407.39L243.48 407.85L241.75 408.72L240.87 409.13L239.98 409.54L239.08 409.92L238.18 410.28L237.26 410.64L236.35 410.98L235.42 411.3L234.47 411.61L233.53 411.89L232.59 412.16L231.64 412.42L230.67 412.67L229.7 412.9L227.75 413.29L226.77 413.47L225.76 413.61L224.77 413.75L223.77 413.87L222.76 413.97L221.75 414.06L220.73 414.12L219.7 414.17L218.67 414.2L217.65 414.21L216.62 414.2L215.59 414.17L214.56 414.12L213.54 414.06L212.54 413.97L211.54 413.87L210.53 413.75L209.53 413.61L208.54 413.47L207.56 413.29L206.58 413.09L205.61 412.9L204.65 412.67L203.68 412.42L202.73 412.16L201.79 411.89L200.84 411.61L199.91 411.3L198.98 410.98L198.07 410.64L196.26 409.92L195.35 409.54L193.59 408.72L192.71 408.29L191.86 407.85L191 407.39L190.16 406.92L189.32 406.43L188.49 405.93L187.67 405.41L186.87 404.89L186.06 404.35L185.27 403.79L184.49 403.23L183.72 402.65L182.95 402.05L182.21 401.45L181.46 400.83L180.47 401.24L179.51 401.67L178.55 402.13L177.61 402.62L176.69 403.13L175.8 403.68L174.92 404.23L174.05 404.83L173.21 405.44L172.39 406.08L171.59 406.74L170.81 407.42L170.05 408.11L169.32 408.84L168.6 409.59L167.91 410.36L167.24 411.14L166.59 411.94L165.97 412.76L165.38 413.6L164.81 414.46L164.26 415.34L163.74 416.23L163.25 417.13L162.78 418.06L162.34 418.99L161.93 419.95L161.54 420.91L161.19 421.9L160.86 422.9L160.56 423.9L160.29 424.92L160.05 425.94L159.84 426.99L159.67 428.04L159.52 429.1L159.41 430.17L159.32 431.26L159.27 432.35L159.26 433.44L159.26 495.1L275.94 495.1L275.94 433.44L275.92 432.35L275.87 431.26L275.79 430.17L275.68 429.1L275.53 428.04L275.35 426.99L275.14 425.94L274.91 424.92L274.63 423.9L274.34 422.9L274 421.9L273.66 420.91L273.27 419.95L272.86 418.99L272.42 418.06L271.95 417.13L271.46 416.23L270.94 415.34L270.4 414.46L269.83 413.6L269.23 412.76L268.61 411.94L267.97 411.14L267.31 410.36L266.62 409.59L265.91 408.84L265.17 408.11L264.42 407.42L263.64 406.74L262.85 406.08L262.03 405.44L261.19 404.83L260.33 404.23L259.46 403.68L258.56 403.13L257.66 402.62L256.72 402.13L255.77 401.67L254.81 401.24L253.83 400.83L253.1 401.45L251.6 402.65ZM76.98 495L139.53 495L139.53 433.34L139.56 431.79L139.62 430.26L139.73 428.73L139.88 427.21L140.06 425.71L140.3 424.21L140.57 422.73L140.88 421.27L141.23 419.82L141.61 418.39L142.05 416.96L142.5 415.56L143.01 414.17L143.55 412.8L144.13 411.45L144.73 410.11L145.38 408.79L146.06 407.49L146.78 406.22L147.52 404.97L148.3 403.73L149.12 402.51L149.96 401.32L150.83 400.16L151.75 399.02L152.68 397.89L153.64 396.8L154.65 395.73L155.66 394.68L156.72 393.66L157.8 392.67L158.91 391.72L160.04 390.78L161.2 389.87L162.38 388.99L163.59 388.15L164.83 387.33L166.09 386.54L167.37 385.78L168.68 385.06L168.34 384.47L168.02 383.86L167.4 382.65L166.8 381.41L166.52 380.79L165.97 379.53L165.45 378.25L164.97 376.95L164.75 376.3L164.52 375.65L164.3 374.98L164.1 374.32L163.9 373.65L163.72 372.97L163.53 372.3L163.36 371.62L163.04 370.26L162.89 369.58L162.75 368.88L162.5 367.49L162.39 366.79L162.19 365.37L162.11 364.67L161.96 363.26L161.9 362.54L161.85 361.82L161.77 360.38L161.75 359.65L161.74 358.93L161.74 358.2L161.79 355.89L161.92 353.6L162.16 351.35L162.47 349.12L162.88 346.91L163.36 344.74L163.94 342.6L164.59 340.49L165.33 338.44L166.13 336.4L167.03 334.41L167.99 332.46L169.02 330.55L170.12 328.7L171.3 326.89L172.54 325.13L173.85 323.42L175.22 321.76L176.66 320.15L178.14 318.6L179.69 317.11L181.3 315.67L182.96 314.31L184.67 313L186.43 311.76L188.24 310.58L190.1 309.48L192.01 308.45L193.95 307.48L195.95 306.59L197.98 305.78L200.04 305.04L202.14 304.4L204.29 303.81L206.46 303.33L208.66 302.92L210.89 302.61L213.15 302.38L215.44 302.24L217.75 302.19L220.05 302.24L222.34 302.38L224.6 302.61L226.83 302.92L229.03 303.33L231.2 303.83L233.35 304.4L235.45 305.05L237.51 305.8L239.54 306.6L241.54 307.49L243.48 308.46L245.39 309.5L247.25 310.6L249.06 311.78L250.82 313.02L252.53 314.33L254.19 315.71L255.8 317.15L257.35 318.63L258.84 320.18L260.27 321.79L261.64 323.45L262.95 325.16L264.19 326.92L265.37 328.75L266.47 330.6L267.5 332.5L268.46 334.46L269.36 336.44L270.16 338.47L270.9 340.54L271.55 342.64L272.13 344.77L272.61 346.94L273.02 349.14L273.33 351.37L273.57 353.61L273.71 355.89L273.75 358.2L273.75 358.93L273.73 359.65L273.72 360.38L273.68 361.1L273.63 361.82L273.58 362.52L273.52 363.24L273.46 363.95L273.28 365.36L273.09 366.77L272.71 368.86L272.57 369.54L272.42 370.23L272.26 370.91L272.09 371.58L271.92 372.26L271.55 373.6L271.35 374.27L271.14 374.94L270.93 375.6L270.71 376.25L270.47 376.91L270.24 377.56L269.74 378.84L269.48 379.49L268.93 380.75L268.65 381.38L268.36 382L267.77 383.24L267.46 383.85L266.82 385.06L268.12 385.78L269.41 386.53L270.66 387.31L271.9 388.11L273.1 388.96L274.29 389.84L275.44 390.74L276.58 391.67L277.68 392.62L278.76 393.61L279.8 394.63L280.83 395.67L281.82 396.74L282.79 397.83L283.72 398.94L284.62 400.08L285.49 401.26L286.33 402.45L287.14 403.65L287.92 404.89L288.66 406.14L289.37 407.42L290.05 408.72L290.69 410.03L291.3 411.37L291.87 412.73L292.4 414.1L292.9 415.5L293.37 416.9L293.79 418.32L294.18 419.76L294.52 421.22L294.83 422.7L295.11 424.17L295.33 425.67L295.53 427.18L295.68 428.71L295.77 430.24L295.84 431.78L295.86 433.34L295.86 495L358.51 495L358.51 236.96L76.98 236.96L76.98 495ZM214.36 322.17L212.75 322.35L211.15 322.6L209.59 322.92L208.04 323.32L206.53 323.76L205.04 324.28L203.58 324.87L202.16 325.51L200.77 326.2L199.41 326.97L198.09 327.78L196.8 328.66L195.56 329.58L194.36 330.54L193.2 331.57L192.08 332.64L191.02 333.75L189.99 334.92L189.02 336.12L188.1 337.36L187.23 338.65L186.42 339.96L185.65 341.32L184.96 342.71L184.31 344.14L183.73 345.6L183.21 347.08L182.76 348.6L182.37 350.15L182.05 351.71L181.8 353.31L181.61 354.92L181.5 356.55L181.46 358.2L181.5 359.85L181.61 361.48L181.8 363.09L182.05 364.69L182.37 366.25L182.76 367.8L183.21 369.31L183.73 370.8L184.31 372.26L184.96 373.69L185.65 375.08L186.42 376.44L187.23 377.75L188.1 379.04L189.02 380.28L189.99 381.48L191.02 382.65L192.08 383.76L193.2 384.83L194.36 385.86L195.56 386.82L196.8 387.74L198.09 388.62L199.41 389.43L200.77 390.19L202.16 390.89L203.58 391.53L205.04 392.12L206.53 392.64L208.04 393.08L209.59 393.48L211.15 393.8L212.75 394.05L214.36 394.23L216 394.35L217.65 394.38L219.29 394.35L220.93 394.23L222.54 394.05L224.14 393.8L225.7 393.48L227.25 393.08L228.76 392.64L230.25 392.12L231.71 391.53L233.14 390.89L234.52 390.19L235.89 389.43L237.2 388.62L238.49 387.74L239.73 386.82L240.93 385.86L242.09 384.83L243.21 383.76L244.28 382.65L245.3 381.48L246.27 380.28L247.19 379.04L248.07 377.75L248.87 376.44L249.64 375.08L250.34 373.69L250.98 372.26L251.56 370.8L252.08 369.31L252.53 367.8L252.92 366.25L253.25 364.69L253.49 363.09L253.68 361.48L253.79 359.85L253.83 358.2L253.79 356.55L253.68 354.92L253.49 353.31L253.25 351.71L252.92 350.15L252.53 348.6L252.08 347.08L251.56 345.6L250.98 344.14L250.34 342.71L249.64 341.32L248.87 339.96L248.07 338.65L247.19 337.36L246.27 336.12L245.3 334.92L244.28 333.75L243.21 332.64L242.09 331.57L240.93 330.54L239.73 329.58L238.49 328.66L237.2 327.78L235.89 326.97L234.52 326.2L233.14 325.51L231.71 324.87L230.25 324.28L228.76 323.76L227.25 323.32L225.7 322.92L224.14 322.6L222.54 322.35L220.93 322.17L219.29 322.05L217.65 322.02L216 322.05L214.36 322.17Z" id="a6v2QRS3h"></path><path d="M602.6 57.62L603.69 57.73L604.77 57.89L605.82 58.08L606.86 58.31L607.89 58.6L608.91 58.91L609.91 59.27L610.88 59.65L611.84 60.09L612.77 60.54L613.69 61.04L614.6 61.57L615.46 62.14L616.32 62.74L617.15 63.37L617.94 64.03L618.72 64.72L619.47 65.44L620.18 66.18L620.88 66.96L621.53 67.76L622.17 68.59L622.77 69.43L623.34 70.31L623.88 71.2L624.38 72.12L624.84 73.05L625.28 74.01L625.67 74.99L626.03 75.98L626.35 77L626.64 78.03L626.88 79.07L627.07 80.12L627.23 81.2L627.36 82.29L627.43 83.38L627.46 84.5L627.46 462.19L627.43 463.3L627.37 464.39L627.26 465.49L627.1 466.56L626.91 467.62L626.68 468.66L626.39 469.69L626.08 470.7L625.72 471.69L625.34 472.67L624.91 473.64L624.45 474.57L623.95 475.49L623.42 476.38L622.85 477.26L622.25 478.1L621.62 478.93L620.96 479.72L620.27 480.5L619.55 481.25L618.81 481.97L618.03 482.66L617.23 483.32L616.4 483.95L615.56 484.54L614.68 485.11L613.79 485.65L612.87 486.14L611.94 486.6L610.98 487.03L610 487.42L609.01 487.78L607.99 488.09L606.96 488.37L605.92 488.61L604.87 488.79L603.79 488.95L602.7 489.07L601.61 489.13L600.49 489.15L422.85 489.15L422.85 577.18L422.82 578.3L422.76 579.39L422.65 580.48L422.49 581.56L422.3 582.61L422.07 583.65L421.78 584.68L421.47 585.7L421.11 586.69L420.73 587.67L420.3 588.63L419.84 589.56L419.34 590.48L418.81 591.37L418.24 592.25L417.64 593.09L417.01 593.92L416.36 594.72L415.66 595.5L414.94 596.24L414.2 596.96L413.42 597.65L412.63 598.31L411.8 598.94L410.95 599.54L410.07 600.11L409.18 600.64L408.26 601.14L407.34 601.59L406.37 602.03L405.39 602.41L404.4 602.77L403.38 603.08L402.35 603.37L401.31 603.6L400.26 603.79L399.18 603.95L398.09 604.06L397 604.12L395.89 604.15L39.51 604.15L38.39 604.12L37.3 604.06L36.21 603.95L35.13 603.79L34.08 603.6L33.04 603.37L32.01 603.08L30.99 602.77L30 602.41L29.02 602.03L28.06 601.59L27.13 601.14L26.21 600.64L25.32 600.11L24.44 599.54L23.6 598.94L22.77 598.31L21.97 597.65L21.19 596.96L20.45 596.24L19.73 595.5L19.04 594.72L18.38 593.92L17.75 593.09L17.15 592.25L16.58 591.37L16.05 590.48L15.55 589.56L15.09 588.63L14.66 587.67L14.28 586.69L13.92 585.7L13.61 584.68L13.32 583.65L13.09 582.61L12.9 581.56L12.74 580.48L12.63 579.39L12.57 578.3L12.54 577.18L12.54 364.54L12.55 364.14L12.58 363.74L12.62 363.33L12.68 362.95L12.74 362.55L12.83 362.17L13.05 361.42L13.17 361.05L13.32 360.69L13.48 360.34L13.66 360L13.83 359.66L14.03 359.33L14.24 359.02L14.46 358.7L14.93 358.1L15.45 357.54L16.01 357.02L16.61 356.55L16.93 356.33L17.24 356.12L17.57 355.92L17.91 355.75L18.25 355.57L18.6 355.41L18.96 355.26L19.33 355.14L20.08 354.92L20.46 354.83L20.86 354.77L21.24 354.71L21.65 354.67L22.05 354.64L22.46 354.63L22.86 354.64L23.26 354.67L23.67 354.71L24.05 354.77L24.45 354.83L24.83 354.92L25.58 355.14L25.95 355.26L26.31 355.41L26.66 355.57L27 355.75L27.34 355.92L27.67 356.12L27.98 356.33L28.3 356.55L28.9 357.02L29.46 357.54L29.98 358.1L30.45 358.7L30.67 359.02L30.88 359.33L31.08 359.66L31.25 360L31.43 360.34L31.59 360.69L31.74 361.05L31.86 361.42L32.08 362.17L32.17 362.55L32.23 362.95L32.29 363.33L32.33 363.74L32.36 364.14L32.37 364.54L32.37 577.48L32.39 577.76L32.42 578.06L32.46 578.35L32.52 578.63L32.64 579.18L32.73 579.45L32.93 579.97L33.04 580.22L33.16 580.48L33.43 580.95L33.58 581.18L33.91 581.63L34.08 581.84L34.45 582.24L34.85 582.61L35.06 582.78L35.5 583.11L35.74 583.25L36.21 583.53L36.47 583.65L36.72 583.76L37.24 583.96L37.51 584.05L38.06 584.17L38.34 584.23L38.63 584.27L38.92 584.3L39.21 584.32L396.18 584.32L396.47 584.3L396.77 584.27L397.05 584.23L397.34 584.17L397.88 584.05L398.15 583.96L398.67 583.76L398.92 583.65L399.18 583.53L399.65 583.25L399.89 583.11L400.33 582.78L400.54 582.61L400.94 582.24L401.31 581.84L401.49 581.63L401.81 581.18L401.96 580.95L402.23 580.48L402.35 580.22L402.47 579.97L402.66 579.45L402.75 579.18L402.87 578.63L402.94 578.35L402.97 578.06L403 577.76L403.02 577.48L403.02 199.19L403 198.91L402.97 198.61L402.94 198.32L402.87 198.04L402.75 197.49L402.66 197.22L402.47 196.7L402.35 196.45L402.23 196.19L401.96 195.72L401.81 195.49L401.49 195.04L401.31 194.83L400.94 194.43L400.54 194.06L400.33 193.89L399.89 193.57L399.65 193.42L399.18 193.15L398.92 193.02L398.67 192.91L398.15 192.71L397.88 192.62L397.34 192.5L397.05 192.44L396.77 192.4L396.47 192.38L396.18 192.35L39.21 192.35L38.92 192.38L38.63 192.4L38.34 192.44L38.06 192.5L37.51 192.62L37.24 192.71L36.72 192.91L36.47 193.02L36.21 193.15L35.74 193.42L35.5 193.57L35.06 193.89L34.85 194.06L34.45 194.43L34.08 194.83L33.91 195.04L33.58 195.49L33.43 195.72L33.16 196.19L33.04 196.45L32.93 196.7L32.73 197.22L32.64 197.49L32.52 198.04L32.46 198.32L32.42 198.61L32.39 198.91L32.37 199.19L32.37 329.85L32.36 330.26L32.33 330.65L32.29 331.06L32.23 331.45L32.17 331.84L32.08 332.23L31.86 332.97L31.74 333.34L31.59 333.7L31.43 334.05L31.25 334.4L31.08 334.73L30.88 335.06L30.67 335.37L30.45 335.7L29.98 336.29L29.72 336.58L29.46 336.85L28.9 337.37L28.3 337.84L27.98 338.06L27.67 338.27L27.34 338.47L27 338.65L26.66 338.82L26.31 338.98L25.95 339.13L25.58 339.25L24.83 339.48L24.45 339.56L24.05 339.62L23.67 339.69L23.26 339.72L22.86 339.75L22.46 339.76L22.05 339.75L21.65 339.72L21.24 339.69L20.86 339.62L20.46 339.56L20.08 339.48L19.33 339.25L18.96 339.13L18.6 338.98L18.25 338.82L17.91 338.65L17.57 338.47L17.24 338.27L16.93 338.06L16.61 337.84L16.01 337.37L15.45 336.85L15.19 336.58L14.93 336.29L14.46 335.7L14.24 335.37L14.03 335.06L13.83 334.73L13.66 334.4L13.48 334.05L13.32 333.7L13.17 333.34L13.05 332.97L12.83 332.23L12.74 331.84L12.62 331.06L12.58 330.65L12.55 330.26L12.54 329.85L12.54 199.49L12.57 198.37L12.63 197.28L12.74 196.19L12.9 195.12L13.09 194.06L13.32 193.02L13.61 191.99L13.92 190.98L14.28 189.99L14.66 189.01L15.09 188.04L15.55 187.11L16.05 186.19L16.58 185.3L17.15 184.42L17.75 183.58L18.38 182.75L19.04 181.96L19.73 181.17L20.45 180.43L21.19 179.71L21.97 179.02L22.77 178.36L23.6 177.73L24.44 177.14L25.32 176.57L26.21 176.03L27.13 175.54L28.06 175.08L29.02 174.64L30 174.26L30.99 173.9L32.01 173.59L33.04 173.31L34.08 173.07L35.13 172.89L36.21 172.72L37.3 172.61L38.39 172.55L39.51 172.53L217.05 172.53L217.05 84.5L217.08 83.38L217.14 82.29L217.25 81.2L217.41 80.12L217.6 79.07L217.83 78.03L218.12 77L218.43 75.98L218.79 74.99L219.17 74.01L219.6 73.05L220.06 72.12L220.56 71.2L221.09 70.31L221.66 69.43L222.26 68.59L222.89 67.76L223.54 66.96L224.24 66.18L224.96 65.44L225.7 64.72L226.48 64.03L227.27 63.37L228.1 62.74L228.95 62.14L229.83 61.57L230.72 61.04L231.64 60.54L232.57 60.09L233.53 59.65L234.51 59.27L235.5 58.91L236.52 58.6L237.55 58.31L238.59 58.08L239.64 57.89L240.72 57.73L241.81 57.62L242.9 57.56L244.02 57.53L600.39 57.53L601.51 57.56L602.6 57.62ZM243.43 77.38L243.14 77.41L242.85 77.45L242.57 77.51L242.02 77.63L241.75 77.72L241.23 77.92L240.98 78.03L240.72 78.15L240.25 78.42L240.01 78.57L239.57 78.9L239.36 79.07L238.96 79.44L238.59 79.84L238.41 80.05L238.09 80.49L237.94 80.73L237.67 81.2L237.55 81.46L237.44 81.71L237.24 82.23L237.15 82.5L237.03 83.05L236.96 83.33L236.9 83.91L236.88 84.2L236.88 172.53L261.66 172.53L261.66 112.06L261.67 111.65L261.7 111.25L261.74 110.84L261.8 110.46L261.86 110.06L261.95 109.68L262.17 108.93L262.29 108.56L262.44 108.2L262.6 107.85L262.78 107.51L262.95 107.17L263.15 106.84L263.36 106.53L263.58 106.21L264.05 105.61L264.57 105.05L265.13 104.53L265.73 104.06L266.05 103.84L266.36 103.63L266.69 103.43L267.03 103.26L267.37 103.08L267.72 102.92L268.08 102.77L268.45 102.65L269.19 102.43L269.58 102.34L269.98 102.28L270.36 102.22L270.77 102.18L271.17 102.15L271.57 102.14L572.84 102.14L573.24 102.15L573.64 102.18L574.05 102.22L574.43 102.28L574.83 102.34L575.22 102.43L575.96 102.65L576.33 102.77L576.69 102.92L577.04 103.08L577.38 103.26L577.72 103.43L578.05 103.63L578.36 103.84L578.68 104.06L579.28 104.53L579.84 105.05L580.36 105.61L580.83 106.21L581.05 106.53L581.26 106.84L581.46 107.17L581.63 107.51L581.81 107.85L581.97 108.2L582.12 108.56L582.24 108.93L582.46 109.68L582.55 110.06L582.61 110.46L582.67 110.84L582.71 111.25L582.74 111.65L582.75 112.06L582.75 198.1L582.74 198.51L582.71 198.91L582.67 199.32L582.61 199.7L582.55 200.1L582.46 200.48L582.24 201.22L582.12 201.6L581.97 201.96L581.81 202.3L581.63 202.65L581.46 202.98L581.26 203.32L581.05 203.63L580.83 203.95L580.36 204.55L580.1 204.83L579.84 205.1L579.28 205.62L578.68 206.09L578.36 206.32L578.05 206.53L577.72 206.73L577.04 207.07L576.69 207.23L576.33 207.38L575.96 207.51L575.22 207.73L574.83 207.82L574.43 207.88L574.05 207.94L573.64 207.98L573.24 208L572.84 208.01L572.43 208L572.03 207.98L571.62 207.94L571.24 207.88L570.84 207.82L570.46 207.73L569.71 207.51L569.34 207.38L568.98 207.23L568.64 207.07L568.29 206.9L567.95 206.73L567.62 206.53L567.31 206.32L566.99 206.09L566.39 205.62L565.83 205.1L565.57 204.83L565.31 204.55L564.84 203.95L564.62 203.63L564.41 203.32L564.21 202.98L564.04 202.65L563.86 202.3L563.7 201.96L563.55 201.6L563.43 201.22L563.21 200.48L563.12 200.1L563.06 199.7L563 199.32L562.96 198.91L562.94 198.51L562.92 198.1L562.92 121.97L281.49 121.97L281.49 172.53L395.89 172.53L397 172.55L398.09 172.61L399.18 172.72L400.26 172.89L401.31 173.07L402.35 173.31L403.38 173.59L404.4 173.9L405.39 174.26L406.37 174.64L407.34 175.08L408.26 175.54L409.18 176.03L410.07 176.57L410.95 177.14L411.8 177.73L412.63 178.36L413.42 179.02L414.2 179.71L414.94 180.43L415.66 181.17L416.36 181.96L417.01 182.75L417.64 183.58L418.24 184.42L418.81 185.3L419.34 186.19L419.84 187.11L420.3 188.04L420.73 189.01L421.11 189.99L421.47 190.98L421.78 191.99L422.07 193.02L422.3 194.06L422.49 195.12L422.65 196.19L422.76 197.28L422.82 198.37L422.85 199.49L422.85 379.91L562.92 379.91L562.92 232.7L562.94 232.29L562.96 231.89L563 231.48L563.06 231.1L563.12 230.7L563.21 230.32L563.43 229.58L563.55 229.2L563.7 228.84L563.86 228.5L564.04 228.15L564.21 227.82L564.41 227.48L564.62 227.17L564.84 226.85L565.31 226.26L565.57 225.97L565.83 225.7L566.39 225.18L566.99 224.71L567.31 224.48L567.62 224.27L567.95 224.07L568.29 223.9L568.64 223.73L568.98 223.57L569.34 223.42L569.71 223.29L570.46 223.07L570.84 222.98L571.24 222.92L571.62 222.86L572.03 222.82L572.43 222.8L572.84 222.79L573.24 222.8L573.64 222.82L574.05 222.86L574.43 222.92L574.83 222.98L575.22 223.07L575.96 223.29L576.33 223.42L576.69 223.57L577.04 223.73L577.72 224.07L578.05 224.27L578.36 224.48L578.68 224.71L579.28 225.18L579.84 225.7L580.1 225.97L580.36 226.26L580.83 226.85L581.05 227.17L581.26 227.48L581.46 227.82L581.63 228.15L581.81 228.5L581.97 228.84L582.12 229.2L582.24 229.58L582.46 230.32L582.55 230.7L582.61 231.1L582.67 231.48L582.71 231.89L582.74 232.29L582.75 232.7L582.75 389.92L582.74 390.33L582.71 390.73L582.67 391.14L582.61 391.52L582.55 391.92L582.46 392.3L582.24 393.04L582.12 393.42L581.97 393.78L581.81 394.12L581.63 394.47L581.46 394.8L581.26 395.14L581.05 395.45L580.83 395.77L580.36 396.37L580.1 396.65L579.84 396.92L579.28 397.44L578.68 397.91L578.36 398.14L578.05 398.35L577.72 398.55L577.04 398.89L576.69 399.05L576.33 399.2L575.96 399.33L575.22 399.55L574.83 399.64L574.43 399.7L574.05 399.76L573.64 399.8L572.84 399.84L422.85 399.84L422.85 469.33L600.59 469.33L600.99 469.29L601.18 469.25L601.37 469.22L601.57 469.17L601.94 469.04L602.14 468.97L602.33 468.88L602.7 468.68L602.89 468.57L603.26 468.32L603.44 468.19L603.62 468.04L603.99 467.72L604.16 467.54L604.34 467.36L604.52 467.17L604.69 466.97L604.87 466.76L605.22 466.32L605.39 466.08L605.56 465.83L605.72 465.57L605.9 465.31L606.07 465.04L606.39 464.47L606.57 464.17L606.73 463.86L607.05 463.22L607.21 462.88L607.53 462.19L607.53 84.2L607.51 83.91L607.45 83.33L607.38 83.05L607.26 82.5L607.17 82.23L606.97 81.71L606.86 81.46L606.74 81.2L606.47 80.73L606.32 80.49L606 80.05L605.82 79.84L605.45 79.44L605.05 79.07L604.84 78.9L604.4 78.57L604.16 78.42L603.69 78.15L603.43 78.03L603.18 77.92L602.66 77.72L602.39 77.63L601.84 77.51L601.56 77.45L601.27 77.41L600.98 77.38L600.69 77.36L243.72 77.36L243.43 77.38Z" id="c1kuqZnna5"></path><path d="M602.6 57.62L603.69 57.73L604.77 57.89L605.82 58.08L606.86 58.31L607.89 58.6L608.91 58.91L609.91 59.27L610.88 59.65L611.84 60.09L612.77 60.54L613.69 61.04L614.6 61.57L615.46 62.14L616.32 62.74L617.15 63.37L617.94 64.03L618.72 64.72L619.47 65.44L620.18 66.18L620.88 66.96L621.53 67.76L622.17 68.59L622.77 69.43L623.34 70.31L623.88 71.2L624.38 72.12L624.84 73.05L625.28 74.01L625.67 74.99L626.03 75.98L626.35 77L626.64 78.03L626.88 79.07L627.07 80.12L627.23 81.2L627.36 82.29L627.43 83.38L627.46 84.5L627.46 462.19L627.43 463.3L627.37 464.39L627.26 465.49L627.1 466.56L626.91 467.62L626.68 468.66L626.39 469.69L626.08 470.7L625.72 471.69L625.34 472.67L624.91 473.64L624.45 474.57L623.95 475.49L623.42 476.38L622.85 477.26L622.25 478.1L621.62 478.93L620.96 479.72L620.27 480.5L619.55 481.25L618.81 481.97L618.03 482.66L617.23 483.32L616.4 483.95L615.56 484.54L614.68 485.11L613.79 485.65L612.87 486.14L611.94 486.6L610.98 487.03L610 487.42L609.01 487.78L607.99 488.09L606.96 488.37L605.92 488.61L604.87 488.79L603.79 488.95L602.7 489.07L601.61 489.13L600.49 489.15L422.85 489.15L422.85 577.18L422.82 578.3L422.76 579.39L422.65 580.48L422.49 581.56L422.3 582.61L422.07 583.65L421.78 584.68L421.47 585.7L421.11 586.69L420.73 587.67L420.3 588.63L419.84 589.56L419.34 590.48L418.81 591.37L418.24 592.25L417.64 593.09L417.01 593.92L416.36 594.72L415.66 595.5L414.94 596.24L414.2 596.96L413.42 597.65L412.63 598.31L411.8 598.94L410.95 599.54L410.07 600.11L409.18 600.64L408.26 601.14L407.34 601.59L406.37 602.03L405.39 602.41L404.4 602.77L403.38 603.08L402.35 603.37L401.31 603.6L400.26 603.79L399.18 603.95L398.09 604.06L397 604.12L395.89 604.15L39.51 604.15L38.39 604.12L37.3 604.06L36.21 603.95L35.13 603.79L34.08 603.6L33.04 603.37L32.01 603.08L30.99 602.77L30 602.41L29.02 602.03L28.06 601.59L27.13 601.14L26.21 600.64L25.32 600.11L24.44 599.54L23.6 598.94L22.77 598.31L21.97 597.65L21.19 596.96L20.45 596.24L19.73 595.5L19.04 594.72L18.38 593.92L17.75 593.09L17.15 592.25L16.58 591.37L16.05 590.48L15.55 589.56L15.09 588.63L14.66 587.67L14.28 586.69L13.92 585.7L13.61 584.68L13.32 583.65L13.09 582.61L12.9 581.56L12.74 580.48L12.63 579.39L12.57 578.3L12.54 577.18L12.54 364.54L12.55 364.14L12.58 363.74L12.62 363.33L12.68 362.95L12.74 362.55L12.83 362.17L13.05 361.42L13.17 361.05L13.32 360.69L13.48 360.34L13.66 360L13.83 359.66L14.03 359.33L14.24 359.02L14.46 358.7L14.93 358.1L15.45 357.54L16.01 357.02L16.61 356.55L16.93 356.33L17.24 356.12L17.57 355.92L17.91 355.75L18.25 355.57L18.6 355.41L18.96 355.26L19.33 355.14L20.08 354.92L20.46 354.83L20.86 354.77L21.24 354.71L21.65 354.67L22.05 354.64L22.46 354.63L22.86 354.64L23.26 354.67L23.67 354.71L24.05 354.77L24.45 354.83L24.83 354.92L25.58 355.14L25.95 355.26L26.31 355.41L26.66 355.57L27 355.75L27.34 355.92L27.67 356.12L27.98 356.33L28.3 356.55L28.9 357.02L29.46 357.54L29.98 358.1L30.45 358.7L30.67 359.02L30.88 359.33L31.08 359.66L31.25 360L31.43 360.34L31.59 360.69L31.74 361.05L31.86 361.42L32.08 362.17L32.17 362.55L32.23 362.95L32.29 363.33L32.33 363.74L32.36 364.14L32.37 364.54L32.37 577.48L32.39 577.76L32.42 578.06L32.46 578.35L32.52 578.63L32.64 579.18L32.73 579.45L32.93 579.97L33.04 580.22L33.16 580.48L33.43 580.95L33.58 581.18L33.91 581.63L34.08 581.84L34.45 582.24L34.85 582.61L35.06 582.78L35.5 583.11L35.74 583.25L36.21 583.53L36.47 583.65L36.72 583.76L37.24 583.96L37.51 584.05L38.06 584.17L38.34 584.23L38.63 584.27L38.92 584.3L39.21 584.32L396.18 584.32L396.47 584.3L396.77 584.27L397.05 584.23L397.34 584.17L397.88 584.05L398.15 583.96L398.67 583.76L398.92 583.65L399.18 583.53L399.65 583.25L399.89 583.11L400.33 582.78L400.54 582.61L400.94 582.24L401.31 581.84L401.49 581.63L401.81 581.18L401.96 580.95L402.23 580.48L402.35 580.22L402.47 579.97L402.66 579.45L402.75 579.18L402.87 578.63L402.94 578.35L402.97 578.06L403 577.76L403.02 577.48L403.02 199.19L403 198.91L402.97 198.61L402.94 198.32L402.87 198.04L402.75 197.49L402.66 197.22L402.47 196.7L402.35 196.45L402.23 196.19L401.96 195.72L401.81 195.49L401.49 195.04L401.31 194.83L400.94 194.43L400.54 194.06L400.33 193.89L399.89 193.57L399.65 193.42L399.18 193.15L398.92 193.02L398.67 192.91L398.15 192.71L397.88 192.62L397.34 192.5L397.05 192.44L396.77 192.4L396.47 192.38L396.18 192.35L39.21 192.35L38.92 192.38L38.63 192.4L38.34 192.44L38.06 192.5L37.51 192.62L37.24 192.71L36.72 192.91L36.47 193.02L36.21 193.15L35.74 193.42L35.5 193.57L35.06 193.89L34.85 194.06L34.45 194.43L34.08 194.83L33.91 195.04L33.58 195.49L33.43 195.72L33.16 196.19L33.04 196.45L32.93 196.7L32.73 197.22L32.64 197.49L32.52 198.04L32.46 198.32L32.42 198.61L32.39 198.91L32.37 199.19L32.37 329.85L32.36 330.26L32.33 330.65L32.29 331.06L32.23 331.45L32.17 331.84L32.08 332.23L31.86 332.97L31.74 333.34L31.59 333.7L31.43 334.05L31.25 334.4L31.08 334.73L30.88 335.06L30.67 335.37L30.45 335.7L29.98 336.29L29.72 336.58L29.46 336.85L28.9 337.37L28.3 337.84L27.98 338.06L27.67 338.27L27.34 338.47L27 338.65L26.66 338.82L26.31 338.98L25.95 339.13L25.58 339.25L24.83 339.48L24.45 339.56L24.05 339.62L23.67 339.69L23.26 339.72L22.86 339.75L22.46 339.76L22.05 339.75L21.65 339.72L21.24 339.69L20.86 339.62L20.46 339.56L20.08 339.48L19.33 339.25L18.96 339.13L18.6 338.98L18.25 338.82L17.91 338.65L17.57 338.47L17.24 338.27L16.93 338.06L16.61 337.84L16.01 337.37L15.45 336.85L15.19 336.58L14.93 336.29L14.46 335.7L14.24 335.37L14.03 335.06L13.83 334.73L13.66 334.4L13.48 334.05L13.32 333.7L13.17 333.34L13.05 332.97L12.83 332.23L12.74 331.84L12.62 331.06L12.58 330.65L12.55 330.26L12.54 329.85L12.54 199.49L12.57 198.37L12.63 197.28L12.74 196.19L12.9 195.12L13.09 194.06L13.32 193.02L13.61 191.99L13.92 190.98L14.28 189.99L14.66 189.01L15.09 188.04L15.55 187.11L16.05 186.19L16.58 185.3L17.15 184.42L17.75 183.58L18.38 182.75L19.04 181.96L19.73 181.17L20.45 180.43L21.19 179.71L21.97 179.02L22.77 178.36L23.6 177.73L24.44 177.14L25.32 176.57L26.21 176.03L27.13 175.54L28.06 175.08L29.02 174.64L30 174.26L30.99 173.9L32.01 173.59L33.04 173.31L34.08 173.07L35.13 172.89L36.21 172.72L37.3 172.61L38.39 172.55L39.51 172.53L217.05 172.53L217.05 84.5L217.08 83.38L217.14 82.29L217.25 81.2L217.41 80.12L217.6 79.07L217.83 78.03L218.12 77L218.43 75.98L218.79 74.99L219.17 74.01L219.6 73.05L220.06 72.12L220.56 71.2L221.09 70.31L221.66 69.43L222.26 68.59L222.89 67.76L223.54 66.96L224.24 66.18L224.96 65.44L225.7 64.72L226.48 64.03L227.27 63.37L228.1 62.74L228.95 62.14L229.83 61.57L230.72 61.04L231.64 60.54L232.57 60.09L233.53 59.65L234.51 59.27L235.5 58.91L236.52 58.6L237.55 58.31L238.59 58.08L239.64 57.89L240.72 57.73L241.81 57.62L242.9 57.56L244.02 57.53L600.39 57.53L601.51 57.56L602.6 57.62ZM243.43 77.38L243.14 77.41L242.85 77.45L242.57 77.51L242.02 77.63L241.75 77.72L241.23 77.92L240.98 78.03L240.72 78.15L240.25 78.42L240.01 78.57L239.57 78.9L239.36 79.07L238.96 79.44L238.59 79.84L238.41 80.05L238.09 80.49L237.94 80.73L237.67 81.2L237.55 81.46L237.44 81.71L237.24 82.23L237.15 82.5L237.03 83.05L236.96 83.33L236.9 83.91L236.88 84.2L236.88 172.53L261.66 172.53L261.66 112.06L261.67 111.65L261.7 111.25L261.74 110.84L261.8 110.46L261.86 110.06L261.95 109.68L262.17 108.93L262.29 108.56L262.44 108.2L262.6 107.85L262.78 107.51L262.95 107.17L263.15 106.84L263.36 106.53L263.58 106.21L264.05 105.61L264.57 105.05L265.13 104.53L265.73 104.06L266.05 103.84L266.36 103.63L266.69 103.43L267.03 103.26L267.37 103.08L267.72 102.92L268.08 102.77L268.45 102.65L269.19 102.43L269.58 102.34L269.98 102.28L270.36 102.22L270.77 102.18L271.17 102.15L271.57 102.14L572.84 102.14L573.24 102.15L573.64 102.18L574.05 102.22L574.43 102.28L574.83 102.34L575.22 102.43L575.96 102.65L576.33 102.77L576.69 102.92L577.04 103.08L577.38 103.26L577.72 103.43L578.05 103.63L578.36 103.84L578.68 104.06L579.28 104.53L579.84 105.05L580.36 105.61L580.83 106.21L581.05 106.53L581.26 106.84L581.46 107.17L581.63 107.51L581.81 107.85L581.97 108.2L582.12 108.56L582.24 108.93L582.46 109.68L582.55 110.06L582.61 110.46L582.67 110.84L582.71 111.25L582.74 111.65L582.75 112.06L582.75 198.1L582.74 198.51L582.71 198.91L582.67 199.32L582.61 199.7L582.55 200.1L582.46 200.48L582.24 201.22L582.12 201.6L581.97 201.96L581.81 202.3L581.63 202.65L581.46 202.98L581.26 203.32L581.05 203.63L580.83 203.95L580.36 204.55L580.1 204.83L579.84 205.1L579.28 205.62L578.68 206.09L578.36 206.32L578.05 206.53L577.72 206.73L577.04 207.07L576.69 207.23L576.33 207.38L575.96 207.51L575.22 207.73L574.83 207.82L574.43 207.88L574.05 207.94L573.64 207.98L573.24 208L572.84 208.01L572.43 208L572.03 207.98L571.62 207.94L571.24 207.88L570.84 207.82L570.46 207.73L569.71 207.51L569.34 207.38L568.98 207.23L568.64 207.07L568.29 206.9L567.95 206.73L567.62 206.53L567.31 206.32L566.99 206.09L566.39 205.62L565.83 205.1L565.57 204.83L565.31 204.55L564.84 203.95L564.62 203.63L564.41 203.32L564.21 202.98L564.04 202.65L563.86 202.3L563.7 201.96L563.55 201.6L563.43 201.22L563.21 200.48L563.12 200.1L563.06 199.7L563 199.32L562.96 198.91L562.94 198.51L562.92 198.1L562.92 121.97L281.49 121.97L281.49 172.53L395.89 172.53L397 172.55L398.09 172.61L399.18 172.72L400.26 172.89L401.31 173.07L402.35 173.31L403.38 173.59L404.4 173.9L405.39 174.26L406.37 174.64L407.34 175.08L408.26 175.54L409.18 176.03L410.07 176.57L410.95 177.14L411.8 177.73L412.63 178.36L413.42 179.02L414.2 179.71L414.94 180.43L415.66 181.17L416.36 181.96L417.01 182.75L417.64 183.58L418.24 184.42L418.81 185.3L419.34 186.19L419.84 187.11L420.3 188.04L420.73 189.01L421.11 189.99L421.47 190.98L421.78 191.99L422.07 193.02L422.3 194.06L422.49 195.12L422.65 196.19L422.76 197.28L422.82 198.37L422.85 199.49L422.85 379.91L562.92 379.91L562.92 232.7L562.94 232.29L562.96 231.89L563 231.48L563.06 231.1L563.12 230.7L563.21 230.32L563.43 229.58L563.55 229.2L563.7 228.84L563.86 228.5L564.04 228.15L564.21 227.82L564.41 227.48L564.62 227.17L564.84 226.85L565.31 226.26L565.57 225.97L565.83 225.7L566.39 225.18L566.99 224.71L567.31 224.48L567.62 224.27L567.95 224.07L568.29 223.9L568.64 223.73L568.98 223.57L569.34 223.42L569.71 223.29L570.46 223.07L570.84 222.98L571.24 222.92L571.62 222.86L572.03 222.82L572.43 222.8L572.84 222.79L573.24 222.8L573.64 222.82L574.05 222.86L574.43 222.92L574.83 222.98L575.22 223.07L575.96 223.29L576.33 223.42L576.69 223.57L577.04 223.73L577.72 224.07L578.05 224.27L578.36 224.48L578.68 224.71L579.28 225.18L579.84 225.7L580.1 225.97L580.36 226.26L580.83 226.85L581.05 227.17L581.26 227.48L581.46 227.82L581.63 228.15L581.81 228.5L581.97 228.84L582.12 229.2L582.24 229.58L582.46 230.32L582.55 230.7L582.61 231.1L582.67 231.48L582.71 231.89L582.74 232.29L582.75 232.7L582.75 389.92L582.74 390.33L582.71 390.73L582.67 391.14L582.61 391.52L582.55 391.92L582.46 392.3L582.24 393.04L582.12 393.42L581.97 393.78L581.81 394.12L581.63 394.47L581.46 394.8L581.26 395.14L581.05 395.45L580.83 395.77L580.36 396.37L580.1 396.65L579.84 396.92L579.28 397.44L578.68 397.91L578.36 398.14L578.05 398.35L577.72 398.55L577.04 398.89L576.69 399.05L576.33 399.2L575.96 399.33L575.22 399.55L574.83 399.64L574.43 399.7L574.05 399.76L573.64 399.8L572.84 399.84L422.85 399.84L422.85 469.33L600.59 469.33L600.99 469.29L601.18 469.25L601.37 469.22L601.57 469.17L601.94 469.04L602.14 468.97L602.33 468.88L602.7 468.68L602.89 468.57L603.26 468.32L603.44 468.19L603.62 468.04L603.99 467.72L604.16 467.54L604.34 467.36L604.52 467.17L604.69 466.97L604.87 466.76L605.22 466.32L605.39 466.08L605.56 465.83L605.72 465.57L605.9 465.31L606.07 465.04L606.39 464.47L606.57 464.17L606.73 463.86L607.05 463.22L607.21 462.88L607.53 462.19L607.53 84.2L607.51 83.91L607.45 83.33L607.38 83.05L607.26 82.5L607.17 82.23L606.97 81.71L606.86 81.46L606.74 81.2L606.47 80.73L606.32 80.49L606 80.05L605.82 79.84L605.45 79.44L605.05 79.07L604.84 78.9L604.4 78.57L604.16 78.42L603.69 78.15L603.43 78.03L603.18 77.92L602.66 77.72L602.39 77.63L601.84 77.51L601.56 77.45L601.27 77.41L600.98 77.38L600.69 77.36L243.72 77.36L243.43 77.38Z" id="e3hZB0wtZm"></path></defs><g><g><g><use xlink:href="#c1Go9yoxWs" opacity="1" fill="#fca1af" fill-opacity="1"></use><g><use xlink:href="#c1Go9yoxWs" opacity="1" fill-opacity="0" stroke="#000000" stroke-width="1" stroke-opacity="0"></use></g></g><g><use xlink:href="#cXeITypnB" opacity="1" fill="#000000" fill-opacity="0"></use><g><use xlink:href="#cXeITypnB" opacity="1" fill-opacity="0" stroke="#000000" stroke-width="1" stroke-opacity="0"></use></g></g><g><use xlink:href="#a1bBMY7rst" opacity="1" fill="#000000" fill-opacity="0"></use><g><use xlink:href="#a1bBMY7rst" opacity="1" fill-opacity="0" stroke="#000000" stroke-width="1" stroke-opacity="0"></use></g></g><g><use xlink:href="#a6v2QRS3h" opacity="1" fill="#000000" fill-opacity="0"></use><g><use xlink:href="#a6v2QRS3h" opacity="1" fill-opacity="0" stroke="#000000" stroke-width="1" stroke-opacity="0"></use></g></g><g><use xlink:href="#c1kuqZnna5" opacity="1" fill="#fca1af" fill-opacity="1"></use><g><use xlink:href="#c1kuqZnna5" opacity="1" fill-opacity="0" stroke="#000000" stroke-width="1" stroke-opacity="0"></use></g></g><g><use xlink:href="#e3hZB0wtZm" opacity="1" fill="#000000" fill-opacity="0"></use><g><use xlink:href="#e3hZB0wtZm" opacity="1" fill-opacity="0" stroke="#000000" stroke-width="1" stroke-opacity="0"></use></g></g></g></g></svg>