<?xml version="1.0" encoding="UTF-8" standalone="no"?>
<!DOCTYPE svg PUBLIC "-//W3C//DTD SVG 1.1//EN" "http://www.w3.org/Graphics/SVG/1.1/DTD/svg11.dtd">
<svg version="1.1" xmlns="http://www.w3.org/2000/svg" xmlns:xlink="http://www.w3.org/1999/xlink" preserveAspectRatio="xMidYMid meet" viewBox="0 0 640 640" width="640" height="640"><defs><path d="M303.78 5.44L314.8 6.56L325.68 8.12L336.43 10.09L347.02 12.48L357.45 15.28L367.71 18.47L377.8 22.06L387.7 26.02L397.4 30.35L406.91 35.05L416.2 40.1L425.27 45.49L434.1 51.22L442.71 57.27L451.06 63.65L459.15 70.33L466.99 77.31L474.54 84.59L481.82 92.15L488.8 99.98L495.48 108.07L501.86 116.43L507.91 125.03L513.64 133.87L519.03 142.93L524.08 152.22L528.78 161.73L533.11 171.43L537.07 181.33L540.66 191.42L543.85 201.68L546.65 212.12L549.04 222.71L551.01 233.45L552.57 244.33L553.69 255.35L554.36 266.49L554.59 277.74L554.56 280.94L554.45 284.19L554.26 287.49L554 290.84L553.67 294.25L553.26 297.71L552.79 301.22L552.23 304.79L551.61 308.41L550.9 312.08L550.13 315.8L549.28 319.58L548.36 323.41L547.36 327.29L546.29 331.22L545.15 335.21L543.93 339.25L542.64 343.35L541.28 347.49L539.84 351.69L538.33 355.94L536.74 360.25L535.08 364.61L533.35 369.02L531.54 373.48L529.66 378L527.71 382.57L525.68 387.19L523.57 391.86L521.4 396.59L519.15 401.37L516.82 406.2L514.43 411.09L511.96 416.03L509.41 421.02L506.79 426.06L504.1 431.16L501.33 436.31L498.49 441.51L495.58 446.77L620.89 572.81L621.96 573.91L622.97 575.05L623.92 576.21L624.82 577.4L625.67 578.61L626.46 579.85L627.2 581.11L627.88 582.38L628.51 583.68L629.09 584.99L629.61 586.31L630.07 587.65L630.48 589L630.84 590.36L631.14 591.73L631.38 593.11L631.57 594.5L631.71 595.89L631.79 597.28L631.82 598.67L631.79 600.06L631.71 601.45L631.57 602.84L631.38 604.23L631.14 605.61L630.84 606.98L630.48 608.34L630.07 609.69L629.61 611.03L629.09 612.35L628.51 613.66L627.88 614.96L627.2 616.23L626.46 617.49L625.67 618.72L624.82 619.94L623.92 621.13L622.97 622.29L621.96 623.43L620.89 624.53L620.39 625.07L619.88 625.6L619.36 626.11L618.82 626.61L618.27 627.09L617.71 627.57L617.14 628.02L616.56 628.47L615.97 628.9L615.37 629.31L614.76 629.72L614.14 630.11L613.52 630.48L612.89 630.84L612.25 631.19L611.6 631.53L610.95 631.85L610.29 632.16L609.63 632.45L608.96 632.73L608.29 633L607.61 633.25L606.94 633.49L606.26 633.71L605.57 633.92L604.89 634.12L604.2 634.31L603.52 634.48L602.14 634.78L601.46 634.91L600.77 635.02L600.09 635.13L599.41 635.22L598.73 635.29L598.05 635.35L597.38 635.4L596.71 635.43L596.05 635.45L595.39 635.46L594.73 635.45L594.07 635.43L593.41 635.4L592.75 635.35L592.08 635.29L591.42 635.22L590.75 635.13L589.41 634.91L588.74 634.78L587.4 634.48L586.74 634.31L586.07 634.12L585.4 633.92L584.74 633.71L584.07 633.49L583.41 633.25L582.75 633L582.1 632.73L581.44 632.45L580.79 632.16L580.14 631.85L579.5 631.53L578.86 631.19L578.22 630.84L577.59 630.48L576.96 630.11L576.34 629.72L575.72 629.31L575.11 628.9L574.5 628.47L573.9 628.02L573.31 627.57L572.72 627.09L572.14 626.61L571.57 626.11L571 625.6L570.44 625.07L569.89 624.53L443.12 497.77L439.72 500.25L436.27 502.69L432.78 505.07L429.25 507.4L425.69 509.67L422.08 511.89L418.44 514.06L414.76 516.17L411.05 518.22L407.3 520.21L403.52 522.15L399.7 524.03L395.85 525.85L391.96 527.62L388.04 529.32L384.09 530.96L380.11 532.55L376.1 534.07L372.06 535.53L367.99 536.93L363.89 538.26L359.77 539.53L355.61 540.74L351.43 541.88L347.23 542.96L342.99 543.97L338.73 544.92L334.45 545.8L330.15 546.61L325.82 547.35L321.47 548.03L317.09 548.64L312.7 549.17L308.28 549.64L303.85 550.04L299.39 550.37L294.92 550.62L290.42 550.8L285.91 550.91L281.39 550.95L270.13 550.72L258.99 550.04L247.97 548.92L237.09 547.37L226.35 545.4L215.76 543.01L205.33 540.21L195.06 537.01L184.98 533.43L175.08 529.47L165.37 525.14L155.87 520.44L146.58 515.39L137.51 510L128.67 504.27L120.07 498.21L111.72 491.84L103.62 485.16L95.79 478.18L88.23 470.9L80.96 463.34L73.97 455.51L67.29 447.42L60.92 439.06L54.86 430.46L49.13 421.62L43.74 412.55L38.69 403.26L34 393.76L29.66 384.06L25.7 374.15L22.12 364.07L18.92 353.81L16.13 343.37L13.74 332.78L11.76 322.04L10.21 311.16L9.09 300.14L8.41 289L8.18 277.74L8.41 266.49L9.09 255.35L10.21 244.33L11.76 233.45L13.74 222.71L16.13 212.12L18.92 201.68L22.12 191.42L25.7 181.33L29.66 171.43L34 161.73L38.69 152.22L43.74 142.93L49.13 133.87L54.86 125.03L60.92 116.43L67.29 108.07L73.97 99.98L80.96 92.15L88.23 84.59L95.79 77.31L103.62 70.33L111.72 63.65L120.07 57.27L128.67 51.22L137.51 45.49L146.58 40.1L155.87 35.05L165.37 30.35L175.08 26.02L184.98 22.06L195.06 18.47L205.33 15.28L215.76 12.48L226.35 10.09L237.09 8.12L247.97 6.56L258.99 5.44L270.13 4.77L281.39 4.54L292.64 4.77L303.78 5.44ZM264.94 78.06L256.86 78.88L248.87 80.01L240.98 81.46L233.21 83.21L225.56 85.26L218.03 87.6L210.63 90.22L203.36 93.13L196.24 96.3L189.28 99.74L182.46 103.44L175.81 107.39L169.33 111.59L163.02 116.02L156.9 120.69L150.96 125.59L145.22 130.71L139.68 136.04L134.35 141.58L129.23 147.32L124.34 153.26L119.67 159.38L115.23 165.69L111.03 172.17L107.08 178.82L103.38 185.63L99.94 192.6L96.77 199.72L93.87 206.98L91.24 214.38L88.9 221.91L86.85 229.57L85.1 237.34L83.66 245.22L82.52 253.21L81.7 261.3L81.2 269.48L81.04 277.74L81.2 286.01L81.7 294.19L82.53 302.28L83.68 310.26L85.13 318.15L86.9 325.92L88.96 333.57L91.31 341.1L93.95 348.5L96.87 355.77L100.06 362.89L103.52 369.86L107.24 376.67L111.21 383.32L115.42 389.8L119.88 396.11L124.56 402.23L129.48 408.17L134.61 413.91L139.96 419.45L145.51 424.78L151.26 429.9L157.21 434.79L163.34 439.46L169.65 443.9L176.13 448.1L182.79 452.05L189.6 455.75L196.56 459.19L203.67 462.36L210.92 465.27L218.31 467.89L225.82 470.23L233.45 472.28L241.19 474.03L249.04 475.48L257 476.61L265.04 477.43L273.17 477.93L281.39 478.09L289.6 477.93L297.73 477.43L305.78 476.61L313.73 475.48L321.58 474.03L329.33 472.28L336.96 470.23L344.47 467.89L351.85 465.27L359.1 462.36L366.21 459.19L373.18 455.75L379.99 452.05L386.64 448.1L393.12 443.9L399.44 439.46L405.57 434.79L411.51 429.9L417.26 424.78L422.82 419.45L428.16 413.91L433.3 408.17L438.21 402.23L442.9 396.11L447.35 389.8L451.57 383.32L455.54 376.67L459.25 369.86L462.71 362.89L465.9 355.77L468.82 348.5L471.46 341.1L473.82 333.57L475.88 325.92L477.64 318.15L479.1 310.26L480.24 302.28L481.07 294.19L481.57 286.01L481.74 277.74L481.57 269.48L481.07 261.3L480.25 253.21L479.12 245.22L477.67 237.34L475.92 229.57L473.87 221.91L471.53 214.38L468.91 206.98L466.01 199.72L462.83 192.6L459.39 185.63L455.69 178.82L451.74 172.17L447.54 165.69L443.11 159.38L438.44 153.26L433.54 147.32L428.42 141.58L423.09 136.04L417.55 130.71L411.81 125.59L405.87 120.69L399.75 116.02L393.44 111.59L386.96 107.39L380.31 103.44L373.5 99.74L366.53 96.3L359.41 93.13L352.15 90.22L344.75 87.6L337.22 85.26L329.56 83.21L321.79 81.46L313.91 80.01L305.92 78.88L297.83 78.06L289.65 77.56L281.39 77.39L273.12 77.56L264.94 78.06Z" id="a8LQDwa6v"></path></defs><g><g><g><use xlink:href="#a8LQDwa6v" opacity="1" fill="#fca1af" fill-opacity="1"></use><g><use xlink:href="#a8LQDwa6v" opacity="1" fill-opacity="0" stroke="#000000" stroke-width="1" stroke-opacity="0"></use></g></g></g></g></svg>