<?xml version="1.0" encoding="UTF-8" standalone="no"?>
<!DOCTYPE svg PUBLIC "-//W3C//DTD SVG 1.1//EN" "http://www.w3.org/Graphics/SVG/1.1/DTD/svg11.dtd">
<svg version="1.1" xmlns="http://www.w3.org/2000/svg" xmlns:xlink="http://www.w3.org/1999/xlink" preserveAspectRatio="xMidYMid meet" viewBox="0 0 640 640" width="640" height="640"><defs><path d="M284.68 271.44C284.68 290.94 300.49 306.76 320 306.76C339.5 306.76 355.32 290.94 355.32 271.44C355.32 251.93 339.5 236.12 320 236.12C300.49 236.12 284.68 251.93 284.68 271.44Z" id="e3jm8oSgQF"></path><path d="M552.61 268.26C546.52 240.8 535.67 215.18 521.01 192.18C523.84 188.21 538 168.39 563.5 132.7C557.88 127.08 512.92 82.12 507.3 76.5C471.61 101.99 451.78 116.16 447.82 118.99C424.82 104.33 399.2 93.48 371.74 87.39C370.93 82.59 366.93 58.59 359.73 15.38C351.78 15.38 288.22 15.38 280.27 15.38C273.07 58.59 269.07 82.59 268.26 87.39C240.8 93.48 215.18 104.33 192.18 118.99C188.21 116.16 168.39 101.99 132.69 76.5C127.07 82.12 82.12 127.08 76.5 132.7C102 168.39 116.16 188.21 118.99 192.18C104.33 215.18 93.48 240.8 87.39 268.26C82.59 269.06 58.59 273.06 15.38 280.27C15.38 288.22 15.38 351.78 15.38 359.73C58.59 366.93 82.59 370.93 87.39 371.74C93.48 399.2 104.33 424.82 118.99 447.82C116.16 451.79 102 471.62 76.5 507.31C82.12 512.93 127.07 557.87 132.69 563.49C168.39 538 188.21 523.84 192.18 521.01C215.18 535.67 240.8 546.52 268.26 552.61C269.07 557.41 273.07 581.41 280.27 624.62C288.22 624.62 351.78 624.62 359.73 624.62C366.93 581.41 370.93 557.41 371.74 552.61C399.2 546.52 424.82 535.67 447.82 521.01C451.78 523.84 471.61 538 507.3 563.49C512.92 557.87 557.88 512.93 563.5 507.31C538 471.62 523.84 451.79 521.01 447.82C535.67 424.82 546.52 399.2 552.61 371.74C557.41 370.93 581.41 366.93 624.62 359.73C624.62 354.43 624.62 327.95 624.62 280.27C579.81 272.8 555.81 268.79 552.61 268.26Z" id="a6Bh44vJSC"></path><path d="M174.31 326.09C174.31 406.55 239.54 471.78 320 471.78C400.46 471.78 465.69 406.55 465.69 326.09C465.69 245.63 400.46 180.4 320 180.4C239.54 180.4 174.31 245.63 174.31 326.09Z" id="cpzyOZ8gk"></path><path d="M174.31 326.09C174.31 406.55 239.54 471.78 320 471.78C400.46 471.78 465.69 406.55 465.69 326.09C465.69 245.63 400.46 180.4 320 180.4C239.54 180.4 174.31 245.63 174.31 326.09Z" id="ahud9vHRt"></path><path d="M408.24 435.93C406.52 388.68 367.67 350.9 320 350.9C320 350.9 320 350.9 320 350.9C272.34 350.9 233.5 388.66 231.76 435.9" id="h1aRSmtQYF"></path></defs><g><g><g><use xlink:href="#e3jm8oSgQF" opacity="1" fill="#000000" fill-opacity="0"></use><g><use xlink:href="#e3jm8oSgQF" opacity="1" fill-opacity="0" stroke="#fca1af" stroke-width="13" stroke-opacity="1"></use></g></g><g><use xlink:href="#a6Bh44vJSC" opacity="1" fill="#000000" fill-opacity="0"></use><g><use xlink:href="#a6Bh44vJSC" opacity="1" fill-opacity="0" stroke="#fca1af" stroke-width="13" stroke-opacity="1"></use></g></g><g><use xlink:href="#cpzyOZ8gk" opacity="1" fill="#fca1af" fill-opacity="0"></use><g><use xlink:href="#cpzyOZ8gk" opacity="1" fill-opacity="0" stroke="#000000" stroke-width="1" stroke-opacity="0"></use></g></g><g><use xlink:href="#ahud9vHRt" opacity="1" fill="#000000" fill-opacity="0"></use><g><use xlink:href="#ahud9vHRt" opacity="1" fill-opacity="0" stroke="#fca1af" stroke-width="15" stroke-opacity="1"></use></g></g><g><use xlink:href="#h1aRSmtQYF" opacity="1" fill="#000000" fill-opacity="0"></use><g><use xlink:href="#h1aRSmtQYF" opacity="1" fill-opacity="0" stroke="#fca1af" stroke-width="13" stroke-opacity="1"></use></g></g></g></g></svg>