<?xml version="1.0" encoding="UTF-8" standalone="no"?>
<!DOCTYPE svg PUBLIC "-//W3C//DTD SVG 1.1//EN" "http://www.w3.org/Graphics/SVG/1.1/DTD/svg11.dtd">
<svg version="1.1" xmlns="http://www.w3.org/2000/svg" xmlns:xlink="http://www.w3.org/1999/xlink" preserveAspectRatio="xMidYMid meet" viewBox="0 0 640 640" width="640" height="640"><defs><path d="M586.2 447.04C571.38 447.34 556.51 446.43 541.73 447.24C507.39 449.12 477.4 449.29 460.62 407.87C452.58 388.03 426.48 375.49 406.74 358.04C453.76 316.31 549.48 308.2 596.07 343.84C610.99 355.24 624.28 373.84 629.55 391.72C641.09 430.88 627.17 446.21 586.2 447.04Z" id="aYWxf3XoN"></path><path d="M41.33 446.98C14.86 447.15 3.9 431.57 7.08 408.22C9.34 391.64 14.83 373.21 24.94 360.39C66.81 307.34 184.87 307.94 227.22 355.48C204.84 382.52 183.6 409.2 161.07 434.71C155.71 440.76 146.14 446.1 138.29 446.42C106.02 447.71 73.66 446.78 41.33 446.98Z" id="be1twDLkR"></path><path d="M320.84 351.68C281.9 352.71 245.95 304.76 246.21 252.15C246.43 209.16 277.14 176.76 318.33 176.04C360.84 175.31 394.04 209.52 393.52 253.54C392.94 303.35 357.87 350.7 320.84 351.68Z" id="a6W0sFQDi"></path><path d="M225.32 397.16C267.43 360.86 367.85 361.25 412.41 395.41C428.39 407.67 442.9 427.08 448.83 446.11C461.83 487.8 445.68 505.95 401.49 506.48C374.57 506.8 347.67 506.53 320.78 506.51C289.84 506.48 258.88 505.89 227.97 506.65C198.12 507.38 182.29 490.63 188.79 464.5C194.83 440.21 207.04 412.92 225.32 397.16Z" id="d1aNQVGB5E"></path><path d="M320.84 351.68C281.9 352.71 245.95 304.76 246.21 252.15C246.43 209.16 277.14 176.76 318.33 176.04C360.84 175.31 394.04 209.52 393.52 253.54C392.94 303.35 357.87 350.7 320.84 351.68Z" id="j29mpxtUL"></path><path d="M508.3 302.81C473.14 301.95 440.98 258.15 440.83 210.89C440.69 169.35 471.14 137.88 510.66 138.7C548.39 139.49 578.19 170.42 578.72 209.33C579.36 257.64 544.67 303.7 508.3 302.81Z" id="b1WR3laNTg"></path><path d="M130.33 302.99C94.93 303.28 62.13 260.23 61.33 212.47C60.64 170.87 90.3 138.87 129.74 138.66C167.54 138.48 197.83 168.66 199.11 207.76C200.65 255.19 166.34 302.69 130.33 302.99Z" id="c6Kgzt1Te"></path></defs><g><g><g><use xlink:href="#aYWxf3XoN" opacity="1" fill="#dabbc0" fill-opacity="1"></use><g><use xlink:href="#aYWxf3XoN" opacity="1" fill-opacity="0" stroke="#000000" stroke-width="1" stroke-opacity="0"></use></g></g><g><use xlink:href="#be1twDLkR" opacity="1" fill="#dabbc0" fill-opacity="1"></use><g><use xlink:href="#be1twDLkR" opacity="1" fill-opacity="0" stroke="#000000" stroke-width="1" stroke-opacity="0"></use></g></g><g><use xlink:href="#a6W0sFQDi" opacity="1" fill="#dabbc0" fill-opacity="1"></use><g><use xlink:href="#a6W0sFQDi" opacity="1" fill-opacity="0" stroke="#000000" stroke-width="1" stroke-opacity="0"></use></g></g><g><use xlink:href="#d1aNQVGB5E" opacity="1" fill="#dabbc0" fill-opacity="1"></use><g><use xlink:href="#d1aNQVGB5E" opacity="1" fill-opacity="0" stroke="#000000" stroke-width="1" stroke-opacity="0"></use></g></g><g><use xlink:href="#j29mpxtUL" opacity="1" fill="#000000" fill-opacity="0"></use><g><use xlink:href="#j29mpxtUL" opacity="1" fill-opacity="0" stroke="#000000" stroke-width="1" stroke-opacity="0"></use></g></g><g><use xlink:href="#b1WR3laNTg" opacity="1" fill="#dabbc0" fill-opacity="1"></use><g><use xlink:href="#b1WR3laNTg" opacity="1" fill-opacity="0" stroke="#000000" stroke-width="1" stroke-opacity="0"></use></g></g><g><use xlink:href="#c6Kgzt1Te" opacity="1" fill="#dabbc0" fill-opacity="1"></use><g><use xlink:href="#c6Kgzt1Te" opacity="1" fill-opacity="0" stroke="#000000" stroke-width="1" stroke-opacity="0"></use></g></g></g></g></svg>