<?xml version="1.0" encoding="UTF-8" standalone="no"?>
<!DOCTYPE svg PUBLIC "-//W3C//DTD SVG 1.1//EN" "http://www.w3.org/Graphics/SVG/1.1/DTD/svg11.dtd">
<svg version="1.1" xmlns="http://www.w3.org/2000/svg" xmlns:xlink="http://www.w3.org/1999/xlink" preserveAspectRatio="xMidYMid meet" viewBox="0 0 640 640" width="640" height="640"><defs><path d="M104.93 383.42C64.95 418.68 38.1 464.78 19.93 516.55C12.54 538.71 6.28 561.22 1.18 584.02C81.21 615.9 178.96 636.37 285.31 640C292.16 640 346.95 640 353.79 640C460.28 636.37 558.67 615.96 638.82 583.63C626.64 517.51 597.58 455.66 554.46 404.08C526.91 371.43 494.14 352.05 451.42 353.07C362.15 354.66 272.31 354.09 182.78 353.07C153.89 352.76 125.99 363.63 104.93 383.42Z" id="c3mjYBVQus"></path><path d="M182.72 156.04C182.72 71.87 244.06 3.01 319.04 2.37C394.03 1.73 456.52 71.87 456.39 156.87C456.39 241.61 395.43 309.9 319.94 309.9C244.44 309.9 182.65 241.93 182.72 156.04Z" id="c4O7rJoMYU"></path></defs><g><g><g><use xlink:href="#c3mjYBVQus" opacity="1" fill="#fca1af" fill-opacity="1"></use><g><use xlink:href="#c3mjYBVQus" opacity="1" fill-opacity="0" stroke="#000000" stroke-width="1" stroke-opacity="0"></use></g></g><g><use xlink:href="#c4O7rJoMYU" opacity="1" fill="#fca1af" fill-opacity="1"></use><g><use xlink:href="#c4O7rJoMYU" opacity="1" fill-opacity="0" stroke="#000000" stroke-width="1" stroke-opacity="0"></use></g></g></g></g></svg>