<?xml version="1.0" encoding="UTF-8" standalone="no"?>
<!DOCTYPE svg PUBLIC "-//W3C//DTD SVG 1.1//EN" "http://www.w3.org/Graphics/SVG/1.1/DTD/svg11.dtd">
<svg version="1.1" xmlns="http://www.w3.org/2000/svg" xmlns:xlink="http://www.w3.org/1999/xlink" preserveAspectRatio="xMidYMid meet" viewBox="0 0 640 640" width="640" height="640"><defs><path d="M598.37 99.35L600.31 99.54L602.22 99.82L604.1 100.16L605.96 100.58L607.79 101.08L609.59 101.64L611.36 102.27L613.1 102.97L614.81 103.73L616.48 104.55L618.11 105.44L619.7 106.39L621.25 107.4L622.77 108.46L624.23 109.58L625.66 110.76L627.03 111.99L628.36 113.26L629.64 114.59L630.87 115.97L632.04 117.39L633.16 118.86L634.23 120.37L635.23 121.92L636.18 123.52L637.07 125.15L637.9 126.82L638.66 128.52L639.36 130.26L639.99 132.03L640.55 133.83L641.04 135.66L641.46 137.52L641.81 139.41L642.08 141.32L642.28 143.25L642.4 145.2L642.44 147.18L642.44 515.11L642.4 517.08L642.28 519.04L642.08 520.97L641.81 522.88L641.46 524.77L641.04 526.62L640.55 528.46L639.99 530.26L639.36 532.03L638.66 533.77L637.9 535.47L637.07 537.14L636.18 538.77L635.23 540.36L634.23 541.92L633.16 543.43L632.04 544.9L630.87 546.32L629.64 547.7L628.36 549.02L627.03 550.3L625.66 551.53L624.23 552.7L622.77 553.83L621.25 554.89L619.7 555.9L618.11 556.85L616.48 557.73L614.81 558.56L613.1 559.32L611.36 560.02L609.59 560.65L607.79 561.21L605.96 561.7L604.1 562.12L602.22 562.47L600.31 562.74L598.37 562.94L596.42 563.06L594.45 563.1L50.55 563.1L48.57 563.06L46.62 562.94L44.69 562.74L42.78 562.47L40.89 562.12L39.03 561.7L37.2 561.21L35.4 560.65L33.63 560.02L31.89 559.32L30.19 558.56L28.52 557.73L26.89 556.85L25.29 555.9L23.74 554.89L22.23 553.83L20.76 552.7L19.34 551.53L17.96 550.3L16.63 549.02L15.35 547.7L14.13 546.32L12.95 544.9L11.83 543.43L10.77 541.92L9.76 540.36L8.81 538.77L7.92 537.14L7.1 535.47L6.34 533.77L5.64 532.03L5.01 530.26L4.45 528.46L3.95 526.62L3.53 524.77L3.19 522.88L2.91 520.97L2.72 519.04L2.6 517.08L2.56 515.11L2.56 147.18L2.6 145.2L2.72 143.25L2.91 141.32L3.19 139.41L3.53 137.52L3.95 135.66L4.45 133.83L5.01 132.03L5.64 130.26L6.34 128.52L7.1 126.82L7.92 125.15L8.81 123.52L9.76 121.92L10.77 120.37L11.83 118.86L12.95 117.39L14.13 115.97L15.35 114.59L16.63 113.26L17.96 111.99L19.34 110.76L20.76 109.58L22.23 108.46L23.74 107.4L25.29 106.39L26.89 105.44L28.52 104.55L30.19 103.73L31.89 102.97L33.63 102.27L35.4 101.64L37.2 101.08L39.03 100.58L40.89 100.16L42.78 99.82L44.69 99.54L46.62 99.35L48.57 99.23L50.55 99.19L594.45 99.19L596.42 99.23L598.37 99.35ZM18.55 515.11L18.58 516.44L18.66 517.76L18.79 519.06L18.97 520.35L19.2 521.61L19.47 522.86L19.8 524.09L20.17 525.3L20.58 526.48L21.04 527.64L21.54 528.78L22.09 529.9L22.67 530.99L23.3 532.05L23.97 533.08L24.67 534.09L25.41 535.06L26.19 536.01L27 536.92L27.85 537.81L28.73 538.65L29.65 539.47L30.59 540.24L31.57 540.99L32.57 541.69L33.61 542.36L34.67 542.98L35.76 543.57L36.87 544.11L38.01 544.62L39.18 545.08L40.36 545.49L41.57 545.86L42.8 546.19L44.04 546.46L45.31 546.69L46.6 546.87L47.9 547L49.21 547.08L50.55 547.1L594.45 547.1L595.78 547.08L597.1 547L598.4 546.87L599.68 546.69L600.95 546.46L602.2 546.19L603.43 545.86L604.63 545.49L605.82 545.08L606.98 544.62L608.12 544.11L609.23 543.57L610.32 542.98L611.39 542.36L612.42 541.69L613.43 540.99L614.4 540.24L615.35 539.47L616.26 538.65L617.14 537.81L617.99 536.92L618.8 536.01L619.58 535.06L620.32 534.09L621.03 533.08L621.69 532.05L622.32 530.99L622.91 529.9L623.45 528.78L623.95 527.64L624.41 526.48L624.83 525.3L625.2 524.09L625.52 522.86L625.8 521.61L626.03 520.35L626.21 519.06L626.34 517.76L626.41 516.44L626.44 515.11L626.44 446.87L493.47 341.39L375.74 441.13L375.5 441.32L375.25 441.51L374.99 441.69L374.73 441.85L374.46 442.01L374.19 442.15L373.91 442.28L373.62 442.4L373.33 442.5L373.04 442.6L372.74 442.69L372.44 442.76L372.14 442.82L371.83 442.87L371.52 442.91L371.21 442.94L370.9 442.96L370.59 442.97L370.28 442.96L369.97 442.95L369.66 442.92L369.35 442.88L369.04 442.84L368.73 442.78L368.43 442.71L368.13 442.63L367.83 442.53L367.54 442.43L367.25 442.32L366.97 442.19L366.69 442.06L366.42 441.91L366.15 441.76L365.89 441.59L365.63 441.42L365.39 441.23L365.15 441.03L364.92 440.82L364.7 440.6L364.49 440.37L218.02 278.4L18.55 454.62L18.55 515.11ZM49.21 115.21L47.9 115.29L46.6 115.42L45.31 115.6L44.04 115.83L42.8 116.1L41.57 116.43L40.36 116.8L39.18 117.21L38.01 117.67L36.87 118.17L35.76 118.72L34.67 119.3L33.61 119.93L32.57 120.6L31.57 121.3L30.59 122.04L29.65 122.82L28.73 123.63L27.85 124.48L27 125.36L26.19 126.28L25.41 127.22L24.67 128.2L23.97 129.2L23.3 130.24L22.67 131.3L22.09 132.39L21.54 133.5L21.04 134.64L20.58 135.81L20.17 136.99L19.8 138.2L19.47 139.43L19.2 140.67L18.97 141.94L18.79 143.23L18.66 144.53L18.58 145.85L18.55 147.18L18.55 433.37L213.27 261.16L213.5 260.97L213.73 260.79L213.97 260.61L214.21 260.45L214.45 260.29L214.69 260.14L214.94 259.99L215.19 259.86L215.44 259.73L215.69 259.62L215.95 259.51L216.2 259.41L216.46 259.32L216.73 259.25L216.99 259.18L217.26 259.12L217.53 259.08L217.8 259.05L218.08 259.02L218.35 259.01L218.63 259.01L218.92 259.03L219.2 259.05L219.49 259.09L219.78 259.14L220.08 259.21L220.37 259.29L220.67 259.38L220.98 259.49L221.28 259.61L221.59 259.74L221.91 259.89L222.22 260.06L222.54 260.24L222.86 260.43L223.18 260.65L223.51 260.87L223.84 261.12L224.18 261.38L224.52 261.66L371.24 423.88L488.22 324.9L488.43 324.73L488.65 324.57L488.87 324.43L489.1 324.29L489.34 324.16L489.58 324.03L489.82 323.92L490.07 323.82L490.32 323.72L490.57 323.63L490.83 323.55L491.08 323.48L491.35 323.41L491.61 323.36L491.87 323.31L492.14 323.28L492.41 323.25L492.68 323.22L492.95 323.21L493.22 323.21L493.48 323.21L493.75 323.22L494.02 323.25L494.29 323.28L494.56 323.31L494.82 323.36L495.09 323.41L495.35 323.48L495.61 323.55L495.86 323.63L496.12 323.72L496.37 323.82L496.61 323.92L496.85 324.03L497.09 324.16L497.33 324.29L497.56 324.43L497.78 324.57L498 324.73L498.21 324.9L626.44 426.63L626.44 147.18L626.41 145.85L626.34 144.53L626.21 143.23L626.03 141.94L625.8 140.67L625.52 139.43L625.2 138.2L624.83 136.99L624.41 135.81L623.95 134.64L623.45 133.5L622.91 132.39L622.32 131.3L621.69 130.24L621.03 129.2L620.32 128.2L619.58 127.22L618.8 126.28L617.99 125.36L617.14 124.48L616.26 123.63L615.35 122.82L614.4 122.04L613.43 121.3L612.42 120.6L611.39 119.93L610.32 119.3L609.23 118.72L608.12 118.17L606.98 117.67L605.82 117.21L604.63 116.8L603.43 116.43L602.2 116.1L600.95 115.83L599.68 115.6L598.4 115.42L597.1 115.29L595.78 115.21L594.45 115.18L50.55 115.18L49.21 115.21Z" id="a1RdbZDWLu"></path></defs><g><g><g><use xlink:href="#a1RdbZDWLu" opacity="1" fill="#a5819a" fill-opacity="1"></use><g><use xlink:href="#a1RdbZDWLu" opacity="1" fill-opacity="0" stroke="#000000" stroke-width="1" stroke-opacity="0"></use></g></g></g></g></svg>